<?xml version="1.0" encoding="UTF-8"?>
<svg id="Layer_2" data-name="Layer 2" xmlns="http://www.w3.org/2000/svg" viewBox="0 0 88.93 76.51">
  <defs>
    <style>
      .cls-1 {
        fill: #fff;
      }
    </style>
  </defs>
  <g id="Layer_1-2" data-name="Layer 1">
    <polygon class="cls-1" points="60.23 0 60.22 .02 52.28 13.77 43.92 28.27 36.38 41.35 35.66 42.59 16.09 76.51 0 76.51 19.53 42.59 35.86 14.21 35.61 13.77 27.71 0 60.23 0"/>
    <path class="cls-1" d="m88.93,27.98c0,1.21-.08,2.4-.23,3.56-1.74,13.77-13.5,24.41-27.74,24.41-.4,0-.79-.01-1.18-.03l11.81,20.59h-16.27l-10.92-19.18,2.84-4.98,5.23-9.17.34-.59h8.15c7.96,0,14.41-6.45,14.41-14.41,0-5.34-2.9-10-7.22-12.49l1.09-1.92,5.71-10.02c7.38,4.27,12.63,11.83,13.75,20.67.15,1.16.23,2.35.23,3.56Z"/>
  </g>
</svg>