<svg xmlns="http://www.w3.org/2000/svg" viewBox="0 0 500 500" xmlns:v="https://vecta.io/nano"><style><![CDATA[.K{fill:#fff}.L{enable-background:new}.M{fill:#363636}.N{opacity:.2}.O{opacity:.7}.P{fill:#e0e0e0}.Q{fill:#fafafa}.R{opacity:.4}.S{opacity:.15}.T{opacity:.55}]]></style><use href="#A" class="M"/><use href="#A" class="K L N"/><path d="M305.7 376.8c-.2-.7-.8-1.2-1.5-1.4l-5.9-1c-.5-.1-.8-.4-.9-.9v5.5c0 .5.4.9.9 1l4.8.8 2.5-1.2c.6-.3.8-1 .5-1.6-.2-.4-.3-.8-.4-1.2zm1.4-9h0c0 .2.1.4.3.6l.3.3c.2-.1.4-.2.5-.4.5-.5 1-.9 1.5-1.3.5-.3.6-.9.3-1.4 0-.1-.1-.2-.2-.2l-2.5-2.6c-.2-.2-.3-.4-.3-.6v5.6zm13.1.7c-5.1 2-6.9 5.8-4.6 9 1.2-1.5 2.8-2.7 4.6-3.4 5.9-2.4 14-1.5 18.1 1.9.5.4 1 .9 1.4 1.5 1.6-2.3 1.2-4.9-1.4-7.1-4.1-3.4-12.2-4.3-18.1-1.9z" opacity=".1" class="L"/><use href="#B" class="M"/><use href="#B" class="K L O"/><use href="#C" class="M"/><g class="K"><g class="T"><use href="#C"/></g><g class="T"><path d="M329.4 357.9h0l6.9.7c.3 0 .5.3.5.6l-.3 2.6c-.1 1 .5 2 1.5 2.3s1.9.6 2.8 1c.5.2 1.1.3 1.7.3.4 0 .7 0 1-.1l5.3-1.7h.4c.4 0 .8.1 1.1.3l3.5 2.9c.1 0 .1.1.1.1l-.1.1-4.4 2.2c-.9.5-1.3 1.6-.8 2.5.2.4.3.7.4 1.1.3.9 1 1.7 2 1.9l5.9 1c.1 0 .2.1.3.2s.1.2 0 .3l-1 3c-.1.4-.5.6-.9.6h0l-6.2-.2h-.1c-.9 0-1.8.4-2.4 1.1-.4.5-.9.9-1.4 1.3-.4.3-.7.8-.7 1.3s.1 1 .5 1.3l2.5 2.6.1.1-.1.1-5.4 2.2c-.2.1-.4.1-.5.1-.4 0-.7-.1-1-.2l-3.7-2.4c-.6-.4-1.4-.6-2.1-.6h-.5c-1.1.2-2.3.3-3.5.4-1 .1-1.8.7-2.3 1.5l-1.4 2.6c-.2.3-.6.6-1 .6h-.1l-6.8-.7c-.1 0-.3-.1-.4-.2s-.1-.3-.1-.4l.3-2.6c.1-1-.5-2-1.5-2.3l-2.8-1c-.5-.2-1.1-.3-1.7-.3-.3 0-.7 0-1 .1l-5.3 1.7c-.1 0-.2.1-.4 0-.4 0-.8-.1-1.1-.3l-3.5-2.9-.1-.1.1-.1 4.4-2.2c.9-.5 1.3-1.6.8-2.5-.2-.4-.3-.7-.4-1.1-.3-.9-1-1.7-2-1.9l-5.9-1c-.1 0-.2-.1-.3-.2s-.1-.2 0-.3l.9-3c.1-.4.5-.6.9-.6h0l6.2.2h.1c.9 0 1.8-.4 2.4-1.1.4-.5.9-.9 1.4-1.3.4-.3.7-.8.7-1.3s-.1-1-.5-1.3l-2.5-2.6-.1-.1.1-.1 5.5-2.2c.2-.1.4-.1.5-.1.4 0 .7.1 1 .2l3.7 2.4c.6.4 1.4.6 2.1.6h.5c1.1-.2 2.3-.3 3.5-.4 1-.1 1.8-.7 2.3-1.5l1.4-2.6c.2-.4.6-.6 1-.6h0m-1.8 25c2.6 0 5.2-.4 7.7-1.4 3.4-1.4 5.6-3.5 6-6 .2-2.2-.7-4.3-2.5-5.6-2.5-2.1-6.7-3.4-11.1-3.4-2.6 0-5.2.4-7.7 1.4-3.4 1.4-5.6 3.5-6 6-.3 2 .6 4 2.5 5.6 2.5 2.1 6.7 3.4 11.1 3.4m1.8-25.7c-.7 0-1.3.4-1.6 1l-1.4 2.6c-.4.6-1 1.1-1.8 1.1-1.2.1-2.4.2-3.5.4h-.4c-.6 0-1.2-.2-1.8-.5l-3.7-2.4c-.4-.2-.9-.4-1.3-.4-.3 0-.5 0-.8.1l-5.5 2.2c-.4.1-.7.5-.5.9 0 .2.1.3.3.4l2.5 2.6c.4.4.4 1 .1 1.4l-.2.2c-.5.4-1 .9-1.5 1.3-.5.5-1.3.8-2 .9h-.1l-6.2-.2h0c-.7 0-1.3.5-1.5 1.1l-.9 3c-.2.5.1 1.1.6 1.3.1 0 .2.1.3.1l5.9 1c.7.2 1.2.7 1.4 1.4.1.4.3.8.5 1.2.3.6.1 1.3-.5 1.6l-4.4 2.2c-.4.1-.6.5-.5.9.1.2.2.3.3.4l3.5 2.9c.4.3 1 .5 1.5.5.2 0 .4 0 .6-.1l5.3-1.7c.3-.1.6-.1.8-.1.5 0 1 .1 1.4.2.9.4 1.9.8 2.8 1.1.6.2 1.1.9 1 1.5l-.3 2.6c-.1.6.4 1.2 1 1.3l6.8.7h.1c.7 0 1.3-.4 1.6-1l1.4-2.6c.4-.6 1-1.1 1.8-1.1 1.2-.1 2.4-.2 3.5-.4h.4c.6 0 1.2.2 1.8.5l3.7 2.4c.4.2.9.4 1.3.4.3 0 .5 0 .8-.1l5.5-2.2c.4-.1.6-.5.5-.9 0-.1-.1-.3-.2-.4l-2.5-2.6c-.4-.4-.4-1-.1-1.4l.2-.2c.5-.4 1-.9 1.5-1.3.5-.5 1.2-.8 2-.9h.1l6.2.2h0c.7 0 1.3-.5 1.5-1.1l.9-3c.2-.5-.1-1.1-.6-1.3-.1 0-.2-.1-.3-.1l-5.9-1c-.7-.2-1.2-.7-1.4-1.4-.1-.4-.3-.8-.5-1.2-.3-.6-.1-1.3.5-1.6l4.4-2.2c.4-.1.6-.5.5-.9-.1-.2-.2-.3-.3-.4l-3.5-2.9c-.4-.3-1-.5-1.5-.5-.2 0-.4 0-.6.1l-5.3 1.7c-.3.1-.6.1-.9.1-.5 0-1-.1-1.4-.3-.9-.4-1.9-.7-2.8-1-.6-.2-1.1-.9-1-1.5l.3-2.6c.1-.6-.4-1.2-1-1.3l-6.9-.7h0zm-1.8 25c-4.1 0-8.2-1.1-10.7-3.2-4.1-3.4-2.6-8.1 3.3-10.5 2.4-.9 4.9-1.4 7.4-1.3 4.1 0 8.2 1.1 10.7 3.2 4.1 3.4 2.6 8.1-3.3 10.5-2.4.9-4.9 1.3-7.4 1.3z"/></g></g><use href="#D" class="M"/><use href="#D" class="K L N"/><path d="M313.6 324.4c-.3-.5-.7-.8-1.3-.8l-9.3-.6c-.5-.1-.8-.5-.9-.9v-1.2 7.3a.896.896 0 0 0 .9.9l9.3.6c.3 0 .6.2.8.3l2.3-1.7c.3-.2.4-.7.2-1l-.1-.1c-.7-.9-1.4-1.8-1.9-2.8zm-4-12.2h0c0 .2.1.4.3.5l3.2 2.3c.2-.1.3-.3.5-.5.6-1 1.2-1.9 2-2.8.3-.3.3-.8 0-1l-.1-.1-5.5-4c-.1-.1-.2-.2-.3-.4l-.1 6zm43.1.4c-6.5-3.8-17.1-3.8-23.7 0-4.1 2.4-5.6 5.7-4.6 8.8.5-1.7 2-3.3 4.6-4.8 6.5-3.8 17.1-3.8 23.7 0 2 1 3.6 2.5 4.7 4.5.8-3-.7-6.2-4.7-8.5z" opacity=".1" class="L"/><use href="#E" class="M"/><use href="#E" class="K L O"/><use href="#F" class="M"/><g class="K"><g class="T"><use href="#F"/></g><g class="T"><path d="M346 297.6h0c.3 0 .5.2.5.5l.9 4.7c.2.7.7 1.3 1.4 1.4 1.8.3 3.7.7 5.5 1.3.3.1.5.1.8.1.4 0 .8-.1 1.2-.2l7.1-3.3c.2-.1.3-.1.5-.1s.4 0 .6.1l7 4h.1 0s0 .1-.1.1l-5.6 4c-.3.2-.5.5-.5.9s.1.7.3 1c.7.8 1.4 1.7 1.9 2.6.4.6 1 1 1.7 1.1l9.3.6c.2 0 .4.2.4.4v5.2c0 .2-.2.4-.4.4l-9.3.6c-.7.1-1.3.5-1.7 1.1-.5 1-1.2 1.8-1.9 2.6-.5.5-.5 1.3 0 1.8 0 0 .1.1.2.1l5.6 4h.1 0l-.1.1-7 4c-.2.1-.4.1-.6.1s-.3 0-.5-.1l-7.1-3.3c-.4-.2-.8-.2-1.2-.2-.3 0-.5 0-.8.1-1.8.6-3.6 1-5.5 1.3-.7.1-1.3.7-1.4 1.4l-.9 4.7c-.1.3-.3.4-.5.5h-10.3c-.3 0-.5-.2-.5-.5l-.9-4.7c-.2-.7-.7-1.3-1.4-1.4-1.8-.3-3.7-.7-5.5-1.3-.7-.2-1.4-.1-2 .1l-7.1 3.3c-.1.1-.3.1-.5.1s-.4 0-.6-.1l-7-4h-.1 0l.1-.1 5.5-4c.3-.2.5-.5.5-.9s-.1-.7-.4-1c-.7-.8-1.4-1.7-1.9-2.6-.4-.6-1-1-1.7-1.1l-9.3-.6c-.2 0-.4-.2-.4-.4v-5.2c0-.2.2-.4.4-.4l9.3-.6c.7-.1 1.3-.5 1.7-1.1.5-1 1.2-1.8 1.9-2.6.3-.3.4-.6.4-1s-.2-.7-.5-.9l-5.5-4h-.1 0l.1-.1 7-4c.2-.1.4-.1.6-.1s.3 0 .5.1l7.1 3.3c.4.2.8.2 1.2.2.3 0 .5 0 .8-.1 1.8-.6 3.6-1 5.5-1.3.7-.1 1.3-.7 1.4-1.4l.9-4.7c.1-.3.3-.4.5-.5H346m-5.1 31.9c4.2.1 8.4-.9 12.1-2.9 3.3-1.9 5.1-4.5 5.1-7.3s-1.8-5.3-5.1-7.3a26.49 26.49 0 0 0-24.2 0c-3.3 1.9-5.1 4.5-5.1 7.3s1.8 5.4 5.1 7.3c3.7 2 7.8 3 12.1 2.9m5.1-32.4h-10.3c-.5 0-.9.4-1 .9l-.9 4.7a1.285 1.285 0 0 1-1 1c-1.9.3-3.7.8-5.5 1.3-.2.1-.4.1-.6.1-.3 0-.7-.1-1-.2l-7.1-3.3c-.2-.1-.4-.1-.7-.1s-.6.1-.9.2l-7 4c-.3.1-.5.3-.4.6 0 .2.2.3.3.4l5.5 4c.3.2.4.7.2 1l-.1.1c-.8.8-1.4 1.8-2 2.8-.3.5-.7.8-1.3.8l-9.3.6c-.5.1-.8.5-.9.9v5.2a.896.896 0 0 0 .9.9l9.3.6c.5.1 1 .4 1.3.8.6 1 1.2 1.9 2 2.8.3.3.3.8 0 1.1l-.1.1-5.5 4c-.3.1-.4.4-.2.7l.3.3 7 4c.3.1.6.2.9.2.2 0 .5 0 .7-.1l7.1-3.3c.3-.1.7-.2 1-.2.2 0 .4 0 .6.1 1.8.6 3.6 1 5.5 1.3a1.285 1.285 0 0 1 1 1l.9 4.7c.1.5.5.8 1 .9H346c.5 0 .9-.4 1-.9l.9-4.7a1.285 1.285 0 0 1 1-1c1.9-.3 3.7-.8 5.5-1.3.2-.1.4-.1.6-.1.3 0 .7.1 1 .2l7.1 3.3c.5.2 1.1.2 1.5-.1l7-4c.3-.1.4-.4.3-.7 0-.1-.1-.2-.3-.3l-5.5-4c-.3-.2-.4-.7-.2-1l.1-.1c.8-.8 1.4-1.8 2-2.8.3-.5.7-.8 1.3-.8l9.3-.6c.5-.1.8-.4.9-.9V317a.896.896 0 0 0-.9-.9l-9.3-.6c-.5-.1-1-.4-1.3-.8-.6-1-1.2-1.9-2-2.8-.3-.3-.3-.8 0-1l.1-.1 5.5-4c.3-.1.4-.4.3-.7-.1-.2-.2-.3-.4-.3l-7-4c-.3-.1-.6-.2-.9-.2-.2 0-.5 0-.7.1l-7.1 3.3c-.3.1-.7.2-1 .2-.2 0-.4 0-.6-.1-1.8-.6-3.7-1-5.5-1.3a1.285 1.285 0 0 1-1-1l-.9-4.7c.1-.6-.3-1-.8-1h0zm-5.1 32c-4.1.1-8.2-.9-11.9-2.8-6.5-3.8-6.5-9.9 0-13.7 7.4-3.8 16.2-3.8 23.7 0 6.5 3.8 6.5 9.9 0 13.7-3.7 1.9-7.7 2.9-11.8 2.8h0z"/></g></g><path d="M354.4 234.4l-220 127c-2.1 1.2-3.7-.1-3.7-2.8v-192c0-2.7 1.6-5.9 3.7-7.1l220-127c2-1.2 3.7.1 3.7 2.8v192c0 2.8-1.6 6-3.7 7.1z" class="Q"/><g class="M"><path d="M355.9 33c1 0 1.3 1.3 1.3 2.3v192c0 2.4-1.5 5.3-3.3 6.3l-220 127c-.3.2-.6.3-1 .3-1 0-1.3-1.3-1.3-2.4v-192c0-2.4 1.5-5.3 3.2-6.3l220-127c.4-.1.7-.2 1.1-.2m0-.9c-.5 0-1 .2-1.5.5l-220 127c-2.1 1.2-3.7 4.4-3.7 7.1v192c0 2 .9 3.2 2.2 3.2.5 0 1-.2 1.5-.5l220-127c2-1.2 3.7-4.4 3.7-7.1v-192c0-2-.9-3.2-2.2-3.2h0z"/><path d="M358.1 35.3v12L130.8 178.6v-11.9c0-2.7 1.6-5.9 3.7-7.1l220-127c2-1.2 3.6 0 3.6 2.7z"/><use href="#G"/></g><use href="#G" opacity=".5" class="K L"/><use href="#H" class="M"/><g class="K N"><use href="#H"/></g><use href="#I" class="M"/><use href="#I" class="L S"/><path d="M334.6 49.7c-1.4 1-2.3 2.7-2.3 4.4s1 2.5 2.3 1.8c1.4-1 2.3-2.7 2.4-4.4 0-1.8-1.1-2.5-2.4-1.8zm8.4-4.8c-1.4 1-2.3 2.7-2.3 4.4s1 2.5 2.3 1.8c1.4-1 2.3-2.7 2.3-4.4 0-1.8-1.1-2.6-2.3-1.8zm8.3-4.8c-1.4 1-2.3 2.7-2.3 4.4s1 2.5 2.3 1.8c1.4-1 2.3-2.7 2.3-4.4 0-1.8-1-2.6-2.3-1.8z" class="Q"/><path d="M357.2 64.7L131.7 194.9V178L357.2 47.8z" fill="#37474f"/><path d="M278.1 105.9L141 185.2c-1.6.9-3-.1-3-2.3h0c0-2.3 1.2-4.4 3-5.7l137.1-79.4c1.6-1 3 .1 3 2.2h0c0 2.4-1.2 4.6-3 5.9zM348 65.4l-57.7 33.4c-1.6 1-3-.1-3-2.3h0c0-2.3 1.2-4.4 3-5.7L348 57.5c1.6-1 3 0 3 2.2h0c0 2.3-1.1 4.4-3 5.7z" fill="#455a64"/><path d="M191.6 315.2l-50.4 29.1c-1.3.8-2.4 0-2.4-1.8v-37.3c0-1.8.9-3.5 2.4-4.5l50.4-29.1c1.3-.8 2.4 0 2.4 1.8v37.3c0 1.8-.9 3.4-2.4 4.5z" class="K"/><path d="M140.3 345.1h0c-1 0-1.8-.9-1.9-2.2 0-.3.2-.5.4-.5.3 0 .5.2.5.4 0 .3.2 1.3.9 1.3h.1c.3 0 .5.1.5.4s-.1.5-.4.5l-.1.1zm2.5-1.3c-.3 0-.5-.2-.5-.5 0-.2.1-.3.2-.4l2.3-1.4c.2-.1.5-.1.7.2.1.2.1.5-.2.7h0l-2.3 1.3c0 .1-.1.1-.2.1h0zm4.7-2.6c-.3 0-.5-.2-.5-.5 0-.2.1-.3.2-.4l2.3-1.3c.2-.1.5-.1.7.2.1.2.1.5-.2.7h0l-2.3 1.3c0-.1-.1 0-.2 0h0zm-8.7-.6c-.3 0-.5-.2-.5-.5v-2.7c0-.3.2-.5.5-.5s.5.2.5.5v2.7c.1.3-.2.5-.5.5h0 0zm13.3-2.1c-.2 0-.3-.1-.4-.2-.1-.2 0-.5.2-.7l2.3-1.3c.2-.1.5-.1.7.2.1.2 0 .5-.2.7l-2.3 1.3c-.1-.1-.2 0-.3 0h0zm4.7-2.7c-.3 0-.5-.2-.5-.5 0-.2.1-.3.2-.4l2.3-1.3c.2-.1.5-.1.7.2.1.2.1.5-.2.7l-2.4 1.3h-.1 0zm-18-.5c-.3 0-.5-.2-.5-.5v-2.7c0-.3.2-.5.5-.5s.5.2.5.5v2.7c.1.3-.2.5-.5.5h0 0zm22.6-2.2c-.3 0-.5-.2-.5-.5 0-.2.1-.3.2-.4l2.3-1.3c.2-.1.5-.1.7.2.1.2.1.5-.2.7h0l-2.3 1.3h-.2 0zm4.7-2.7c-.2 0-.3-.1-.4-.2-.1-.2 0-.5.2-.7l2.3-1.3c.2-.1.5-.1.7.2.1.2.1.5-.2.7h0l-2.3 1.3h-.3 0zm-27.3-.5c-.3 0-.5-.2-.5-.5v-2.7c0-.3.2-.5.5-.5s.5.2.5.5h0v2.7c.1.3-.2.5-.5.5h0 0zm31.9-2.2c-.3 0-.5-.2-.5-.5 0-.2.1-.3.2-.4l2.3-1.3c.2-.1.5-.1.7.2.1.2.1.5-.2.7l-2.3 1.4c0-.1-.1-.1-.2-.1h0zm4.7-2.6c-.3 0-.5-.2-.5-.5 0-.2.1-.3.2-.4l2.3-1.4c.2-.1.5-.1.7.2.1.2.1.5-.2.7h0l-2.3 1.4c-.1-.1-.1 0-.2 0h0zm-36.6-.6c-.3 0-.5-.2-.5-.5v-2.7c0-.3.2-.5.5-.5s.5.2.5.5v2.7c.1.3-.2.5-.5.5h0 0zm41.2-2.1c-.2 0-.3-.1-.4-.2-.1-.2-.1-.5.2-.7l2.3-1.3c.2-.1.5-.1.7.2.1.2.1.5-.2.7h0l-2.3 1.3c-.1-.1-.2 0-.3 0zm4.6-2.7c-.3 0-.5-.2-.5-.5 0-.2.1-.3.2-.4l2.3-1.3c.2-.1.5-.1.7.2.1.2.1.5-.2.7l-2.3 1.3h-.2 0zm-45.8-.5c-.3 0-.5-.2-.5-.5V316c0-.3.2-.5.5-.5s.5.2.5.5v2.7c0 .2-.2.5-.5.5h0 0zm50.5-2.2c-.3 0-.5-.2-.5-.5 0-.2.1-.3.2-.4l2.3-1.4c.2-.1.5-.1.7.2.1.2.1.5-.1.6h0l-2.3 1.3c-.1.2-.2.2-.3.2zm-50.4-3.2c-.3 0-.5-.2-.5-.5v-2.7c0-.3.2-.5.5-.5s.5.2.5.5v2.7c0 .3-.3.5-.5.5h0zm54.5-.2h-.2c-.2-.1-.3-.4-.2-.6.4-.7.6-1.5.6-2.3 0-.3.2-.5.5-.5.2 0 .5.2.5.4v.1c0 .9-.3 1.9-.7 2.7-.2.1-.3.2-.5.2h0zm-54.5-5.2c-.3 0-.5-.2-.5-.5v-2.7c0-.3.2-.5.5-.5s.5.2.5.5v2.7c-.1.4-.3.6-.5.5h0zm55.1 0c-.3 0-.5-.2-.5-.5h0v-2.7c0-.3.2-.5.5-.5s.5.2.5.5v2.7c0 .2-.2.5-.5.5h0zm-54.5-5.2h-.2c-.2-.1-.3-.4-.2-.6.4-.9 1.1-1.7 1.9-2.2.2-.1.5-.1.7.2.1.2.1.5-.2.7-.7.4-1.2 1.1-1.5 1.8-.2 0-.3.1-.5.1h0zm54.5-.2c-.3 0-.5-.2-.5-.5v-2.7c0-.3.2-.5.5-.5s.5.2.5.5h0v2.7c0 .3-.2.5-.5.5zm-50.5-3.2c-.2 0-.3-.1-.4-.2-.1-.2 0-.5.2-.7l2.3-1.3c.2-.1.5-.1.7.2.1.2.1.5-.2.7h0l-2.3 1.3h-.3 0zm50.5-2.2c-.3 0-.5-.2-.5-.5v-2.7c0-.3.2-.5.5-.5s.5.2.5.5v2.7c0 .3-.2.5-.5.5zm-45.8-.5c-.2 0-.3-.1-.4-.2-.1-.2-.1-.5.2-.7l2.3-1.3c.2-.1.5-.1.7.2.1.2.1.5-.2.7l-2.3 1.3h-.3 0zm4.6-2.6c-.2 0-.3-.1-.4-.2-.1-.2 0-.5.2-.7l2.3-1.3c.2-.1.5-.1.7.2.1.2.1.5-.2.7l-2.3 1.4c-.1-.2-.2-.1-.3-.1h0zm41.2-2.2c-.3 0-.5-.2-.5-.5h0v-2.7c0-.3.2-.5.5-.5s.5.2.5.5v2.7c0 .3-.2.5-.5.5zm-36.5-.5c-.2 0-.3-.1-.4-.2-.1-.2 0-.5.2-.7l2.3-1.4c.2-.1.5 0 .7.2.1.2.1.5-.2.7l-2.3 1.3c-.2.1-.2.1-.3.1h0zm4.6-2.7c-.2 0-.3-.1-.4-.2-.1-.2-.1-.5.2-.7l2.3-1.3c.2-.1.5-.1.7.2.1.2.1.5-.2.7h0l-2.3 1.3c-.1-.1-.2 0-.3 0h0zm31.9-2.2c-.3 0-.5-.2-.5-.5v-2.7c0-.3.2-.5.5-.5s.5.2.5.5v2.7c0 .3-.2.5-.5.5zm-27.2-.5c-.2 0-.3-.1-.4-.2-.1-.2 0-.5.2-.7l2.3-1.3c.2-.1.5-.1.7.2.1.2.1.5-.2.7l-2.3 1.3h-.3 0zm4.6-2.7c-.3 0-.5-.2-.5-.5 0-.2.1-.3.2-.4l2.3-1.3c.2-.1.5-.1.7.2.1.2.1.5-.2.7l-2.3 1.3h-.2 0zm22.6-2.2c-.3 0-.5-.2-.5-.5h0v-2.7c0-.3.2-.5.5-.5s.5.2.5.5v2.7c0 .3-.2.5-.5.5zm-17.9-.4c-.3 0-.5-.2-.5-.5 0-.2.1-.3.2-.4l2.3-1.3c.2-.1.5-.1.7.2.1.2.1.5-.2.7h0l-2.3 1.4c-.1-.2-.2-.1-.2-.1h0zm4.6-2.7c-.2 0-.3-.1-.4-.2-.1-.2 0-.5.2-.7l2.3-1.3c.2-.1.5-.1.7.2.1.2 0 .5-.2.7l-2.3 1.3c-.1-.1-.2 0-.3 0h0zm13.3-2.2c-.3 0-.5-.2-.5-.5v-2.3-.3c0-.3.2-.5.4-.5.3 0 .5.2.5.4v.4 2.3c.1.3-.1.5-.4.5zm-8.7-.5c-.3 0-.5-.2-.5-.5 0-.2.1-.3.2-.4l2.3-1.3c.2-.1.5-.1.7.2.1.2.1.5-.2.7l-2.3 1.4c0-.1-.1-.1-.2-.1h0zm4.7-2.7c-.2 0-.3-.1-.4-.2-.1-.2-.1-.5.2-.7l1.6-.9c.3-.2.6-.3.9-.3s.5.1.5.4-.1.5-.4.5c-.2 0-.4.1-.6.2l-1.6 1h-.2z" class="P"/><path d="M297.3 112l50.4-29.1c1.3-.8 2.4 0 2.4 1.8V122c0 1.8-.9 3.5-2.4 4.5l-50.4 29.1c-1.3.8-2.4 0-2.4-1.8v-37.3c0-1.8.9-3.4 2.4-4.5z" class="K"/><path d="M296.5 156.4c-.2 0-.4-.2-.5-.4 0-.3.1-.5.4-.6.2 0 .4-.1.6-.2l1.6-1c.2-.1.5 0 .7.2.1.2.1.5-.2.7l-1.6 1c-.3.1-.6.3-1 .3h0zm-1.6-1.7c-.2 0-.5-.2-.5-.4v-.4-2.3c0-.3.2-.5.5-.5s.5.2.5.5h0v2.3.3c.1.2-.1.5-.5.5h0zm6.3-.9c-.2 0-.3-.1-.4-.2-.1-.2 0-.5.2-.6l2.3-1.3c.2-.1.5-.1.7.2.1.2 0 .5-.2.7l-2.3 1.3c-.1 0-.2 0-.3-.1h0zm4.7-2.6c-.2 0-.3-.1-.4-.2-.1-.2-.1-.5.2-.7l2.3-1.3c.2-.1.5-.1.7.2.1.2 0 .5-.2.7l-2.3 1.4c-.1-.2-.2-.1-.3-.1h0zm-11-1.9c-.3 0-.5-.2-.5-.5v-2.7c0-.3.2-.5.5-.5s.5.2.5.5v2.7c0 .3-.2.5-.5.5h0zm15.6-.8c-.2 0-.3-.1-.4-.2-.1-.2 0-.5.2-.7l2.3-1.4c.2-.1.5 0 .7.2.1.2.1.5-.2.7l-2.3 1.3c-.1.1-.2.1-.3.1h0zm4.7-2.7c-.2 0-.3-.1-.4-.2-.1-.2 0-.5.2-.7l2.3-1.3c.2-.1.5 0 .7.2.1.2.1.5-.2.7l-2.3 1.3h-.3 0zm-20.3-1.8c-.3 0-.5-.2-.5-.5h0v-2.7c0-.3.2-.5.5-.5s.5.2.5.5v2.7c0 .3-.2.5-.5.5h0zm24.9-.9c-.2 0-.3-.1-.4-.2-.1-.2-.1-.5.2-.7l2.3-1.3c.2-.1.5-.1.7.2.1.2.1.5-.2.7l-2.3 1.3h-.3 0zm4.7-2.6c-.2 0-.3-.1-.4-.2-.1-.2 0-.5.2-.7l2.3-1.3c.2-.1.5-.1.7.2.1.2 0 .5-.2.7l-2.3 1.3c-.2-.1-.2 0-.3 0h0zm-29.6-1.9c-.3 0-.5-.2-.5-.5v-2.7c0-.3.2-.5.5-.5s.5.2.5.5v2.7c0 .3-.2.5-.5.5h0zm34.2-.8c-.2 0-.3-.1-.4-.2-.1-.2 0-.5.2-.7l2.3-1.3c.2-.1.5 0 .7.2.1.2.1.5-.2.7l-2.3 1.3h-.3 0zm4.7-2.7c-.2 0-.3-.1-.4-.2-.1-.2-.1-.5.2-.7l2.3-1.3c.2-.1.5-.1.7.2s.1.5-.2.7L334 135c-.1 0-.1.1-.2.1h0zm-38.9-1.8c-.3 0-.5-.2-.5-.5v-2.7c0-.3.2-.5.5-.5s.5.2.5.5v2.7c0 .2-.2.5-.5.5 0-.1 0-.1 0 0h0zm43.5-.9c-.2 0-.3-.1-.4-.2-.1-.2-.1-.5.2-.7l2.3-1.3c.2-.1.5-.1.7.2.1.2 0 .5-.2.7l-2.3 1.4c-.1-.1-.2-.1-.3-.1h0zm4.7-2.7c-.2 0-.3-.1-.4-.2-.1-.2-.1-.5.2-.7l2.3-1.3c.2-.1.5 0 .7.2.1.2.1.5-.2.7l-2.3 1.3h-.3 0zm-48.2-1.8c-.3 0-.5-.2-.5-.5v-2.7c0-.3.2-.5.5-.5s.5.2.5.5v2.7c0 .3-.2.5-.5.5h0zm52.8-.8c-.2 0-.3-.1-.4-.2-.1-.2-.1-.5.2-.7.7-.4 1.2-1.1 1.5-1.8.1-.3.4-.4.6-.3.3.1.4.4.3.6 0 0 0 .1-.1.1-.4.9-1.1 1.7-1.9 2.2 0 0-.1 0-.2.1h0zm-52.8-4.6c-.3 0-.5-.2-.5-.5v-2.7c0-.3.2-.5.5-.5s.5.2.5.5h0v2.6c0 .4-.2.6-.5.6h0 0zm55.2 0c-.3 0-.5-.2-.5-.5v-2.7c0-.3.2-.5.5-.5s.5.2.5.5h0v2.7c0 .3-.3.4-.5.5h0zm-55.2-5.4c-.2 0-.5-.2-.5-.4v-.1c0-.9.2-1.9.7-2.7.1-.2.4-.3.6-.2s.3.4.2.6c-.4.7-.6 1.5-.6 2.3.1.3-.1.5-.4.5h0zm55.2 0c-.3 0-.5-.2-.5-.5v-2.7c0-.3.2-.5.5-.5s.5.2.5.5v2.7c0 .3-.2.5-.5.5h0zm-52.6-4.6l-.5-.8 2.3-1.3c.2-.1.5 0 .7.2.1.2.1.5-.2.7l-2.3 1.2zm52.6-.7c-.3 0-.5-.2-.5-.5v-2.7c0-.3.2-.5.5-.5s.5.2.5.5v2.7c0 .2-.3.4-.5.5h0zm-48.2-1.9c-.2 0-.3-.1-.4-.2-.1-.2-.1-.5.2-.7l2.3-1.4c.2-.1.5-.1.7.2.1.2.1.5-.2.7l-2.3 1.3c-.1 0-.2 0-.3.1h0zm4.7-2.7c-.3 0-.5-.2-.5-.5 0-.2.1-.3.2-.4l2.3-1.3c.2-.1.5-.1.7.2.1.2 0 .5-.2.7l-2.3 1.3h-.2 0zm43.5-.8c-.3 0-.5-.2-.5-.5v-2.7c0-.3.2-.5.5-.5s.5.2.5.5h0v2.7c0 .3-.3.5-.5.5h0zm-38.9-1.9c-.2 0-.3-.1-.4-.2-.1-.2 0-.5.2-.7l2.3-1.3c.2-.1.5 0 .7.2.1.2.1.5-.2.7l-2.3 1.3h-.3 0zm4.7-2.7c-.2 0-.3-.1-.4-.2-.1-.2 0-.5.2-.7l2.4-1.4c.2-.1.5-.1.7.2.1.2 0 .5-.2.7l-2.3 1.3c-.2.1-.3.1-.4.1h0zm34.2-.8c-.3 0-.5-.2-.5-.5v-2.7c0-.3.2-.5.5-.5s.5.2.5.5v2.7c0 .3-.2.5-.5.5h0zm-29.6-1.8c-.2 0-.3-.1-.4-.2-.1-.2-.1-.5.2-.7l2.3-1.3c.2-.1.5-.1.7.2.1.2 0 .5-.2.7l-2.3 1.3c-.1-.1-.2-.1-.3 0h0zm4.7-2.7c-.2 0-.3-.1-.4-.2-.1-.2-.1-.5.2-.7l2.3-1.3c.2-.1.5-.1.7.2.1.2 0 .5-.2.7l-2.3 1.3c-.2-.1-.3 0-.3 0h0zm24.9-.8c-.3 0-.5-.2-.5-.5v-2.7c0-.3.2-.5.5-.5s.5.2.5.5h0v2.7c0 .2-.2.4-.5.5 0-.1 0-.1 0 0h0zm-20.3-1.9c-.2 0-.3-.1-.4-.2-.1-.2 0-.5.2-.7l2.3-1.3c.2-.1.5 0 .7.2.1.2.1.5-.2.7l-2.3 1.3h-.3 0zm4.7-2.7c-.2 0-.3-.1-.4-.2-.1-.2-.1-.5.2-.7l2.3-1.3c.2-.1.5-.1.6.2.1.2 0 .5-.2.7l-2.3 1.3c-.1-.1-.2 0-.2 0h0zm15.6-.8c-.3 0-.5-.2-.5-.5v-2.7c0-.3.2-.5.5-.5s.5.2.5.5v2.7c0 .2-.2.4-.5.5 0-.1 0-.1 0 0h0zm-11-1.9c-.2 0-.3-.1-.4-.2-.1-.2 0-.5.2-.7l2.3-1.3c.2-.1.5-.1.7.2.1.2 0 .5-.2.7l-2.3 1.3h-.3 0zm4.6-2.6c-.2 0-.3-.1-.4-.2-.1-.2 0-.5.2-.7l2.3-1.3c.2-.1.5 0 .7.2.1.2.1.5-.2.7l-2.3 1.3c-.1-.1-.2-.1-.3 0h0zm6.3-.9c-.2 0-.5-.2-.5-.4 0-.3-.2-1.3-.9-1.3h-.1c-.3 0-.5-.2-.5-.4 0-.3.1-.5.4-.5h.3c1 0 1.8.9 1.9 2.2-.1.2-.2.4-.6.4h0z" class="P"/><path d="M297.3 166.5l50.4-29.1c1.3-.8 2.4 0 2.4 1.8v81.4c0 1.8-.9 3.5-2.4 4.5l-50.4 29.1c-1.3.8-2.4 0-2.4-1.8V171c0-1.8.9-3.5 2.4-4.5z" class="K"/><path d="M296.3 255h-.4c-.3-.1-.4-.3-.4-.6.1-.3.3-.4.6-.4s.6 0 .9-.2l1.3-.7c.2-.1.5-.1.7.2.1.2 0 .5-.2.7l-1.3.7c-.3.2-.7.3-1.2.3zm-1.4-2.2c-.3 0-.5-.2-.5-.5v-2.7c0-.3.2-.5.5-.5s.5.2.5.5v2.7c0 .3-.2.5-.5.5h0zm6-.2c-.3 0-.5-.2-.5-.5 0-.2.1-.3.2-.4l2.3-1.4c.2-.1.5 0 .7.2.1.2.1.5-.2.7l-2.4 1.4c.1 0 0 0-.1 0h0zm4.7-2.7c-.3 0-.5-.2-.5-.5 0-.2.1-.3.2-.4l2.3-1.4c.2-.1.5-.1.7.2.1.2 0 .5-.2.7l-2.3 1.4h-.2 0zm-10.7-2.5c-.3 0-.5-.2-.5-.5h0v-2.7c0-.3.2-.5.5-.5s.5.2.5.5v2.7c0 .3-.2.5-.5.5 0-.1 0-.1 0 0h0zm15.4-.2c-.3 0-.5-.2-.5-.5 0-.2.1-.3.2-.4l2.3-1.4c.2-.1.5-.1.7.2s.1.5-.2.7h0l-2.3 1.4h-.2 0zm4.7-2.7c-.2 0-.3-.1-.4-.2-.1-.2 0-.5.2-.7l2.3-1.4c.2-.1.5 0 .7.2.1.2.1.5-.2.7l-2.4 1.4h-.2 0zm-20-2.5c-.3 0-.5-.2-.5-.5v-2.7c0-.3.2-.5.5-.5s.5.2.5.5h0v2.7c0 .2-.2.5-.5.5 0-.1-.1-.1 0 0h0zm24.7-.2c-.2 0-.3-.1-.4-.2-.1-.2-.1-.5.2-.7l2.4-1.4c.2-.1.5-.1.7.2.1.2 0 .5-.2.7l-2.3 1.4h-.4 0zm4.6-2.7c-.2 0-.3-.1-.4-.2-.1-.2 0-.5.2-.7l2.3-1.4c.2-.1.5-.1.7.2s.1.5-.2.7l-2.4 1.3c0 .1-.1.1-.2.1h0zm-29.3-2.5c-.3 0-.5-.2-.5-.5v-2.7c0-.3.2-.5.5-.5s.5.2.5.5v2.6c0 .3-.1.5-.4.5-.1 0-.1 0-.1.1h0zm34-.2c-.2 0-.3-.1-.4-.2-.1-.2-.1-.5.2-.7l2.3-1.4c.2-.1.5-.1.6.2.1.2.1.5-.2.7l-2.3 1.4h-.2 0zm4.7-2.7c-.2 0-.3-.1-.4-.2-.1-.2-.1-.5.2-.7l2.4-1.4c.2-.1.5-.1.7.2s.1.5-.2.7l-2.3 1.4h-.4 0zm-38.7-2.5c-.3 0-.5-.2-.5-.5V228c0-.3.2-.5.5-.5s.5.2.5.5v2.7c0 .2-.3.4-.5.5 0-.1-.1-.1 0 0h0zm43.4-.2c-.2 0-.3-.1-.4-.2-.1-.2 0-.5.2-.7l2.3-1.4c.2-.1.5-.1.7.2s.1.5-.2.7h0l-2.3 1.4h-.3 0zm4.7-2.7c-.2 0-.3-.1-.4-.2-.1-.2 0-.5.2-.7l2.3-1.4c.2-.1.5-.1.7.2.1.2.1.5-.2.7h0l-2.3 1.4h-.3 0zm-48.1-2.5c-.3 0-.5-.2-.5-.5v-2.7c0-.3.2-.5.5-.5s.5.2.5.5v2.7c0 .2-.3.4-.5.5 0-.1-.1-.1 0 0h0zm52.8-.2c-.2 0-.3-.1-.4-.2-.1-.2-.1-.5.2-.7.7-.5 1.2-1.1 1.5-1.8.1-.2.4-.3.6-.2s.3.4.2.6c-.4.9-1.1 1.7-1.9 2.2-.1.1-.2.1-.2.1h0zm2.3-4.6c-.3 0-.5-.2-.5-.5v-2.7c0-.3.2-.5.5-.5s.5.2.5.5v2.7c0 .2-.2.4-.5.5 0-.1 0-.1 0 0h0zm-55.1-.7c-.3 0-.5-.2-.5-.5h0v-2.7c0-.3.2-.5.5-.5s.5.2.5.5v2.7c0 .3-.3.5-.5.5-.1 0-.1 0 0 0h0zm55.1-4.7c-.3 0-.5-.2-.5-.5v-2.7c0-.3.2-.5.5-.5s.5.2.5.5v2.6c.1.3-.1.5-.5.6.1-.1 0-.1 0 0h0zm-55.1-.7c-.3 0-.5-.2-.5-.5h0v-2.8c0-.3.2-.5.5-.5s.5.2.5.5v2.7c0 .4-.2.6-.5.6 0 0-.1 0 0 0h0zm55.1-4.7c-.3 0-.5-.2-.5-.5V207c0-.3.2-.5.5-.5s.5.2.5.5v2.7c0 .2-.2.4-.5.5 0-.1 0-.1 0 0h0zm-55.1-.7c-.3 0-.5-.2-.5-.5v-2.7c0-.3.2-.5.5-.5s.5.2.5.5v2.7c0 .3-.2.5-.5.5 0 0-.1 0 0 0h0zm55.1-4.8c-.3 0-.5-.2-.5-.5v-2.7c0-.3.2-.5.5-.5s.5.2.5.5v2.7c0 .3-.2.5-.5.5h0zm-55.1-.6c-.3 0-.5-.2-.5-.5v-2.7c0-.3.2-.5.5-.5s.5.2.5.5v2.7c0 .3-.2.5-.5.5 0 0-.1 0 0 0h0zm55.1-4.8c-.3 0-.5-.2-.5-.5V196c0-.3.2-.5.5-.5s.5.2.5.5v2.7c0 .4-.2.6-.5.6h0zm-55.1-.6c-.3 0-.5-.2-.5-.5v-2.7c0-.3.2-.5.5-.5s.5.2.5.5v2.7c0 .3-.3.5-.5.5 0 0-.1 0 0 0h0zm55.1-4.8c-.3 0-.5-.2-.5-.5v-2.7c0-.3.2-.5.5-.5s.5.2.5.5v2.7c0 .3-.2.5-.5.5h0zm-55.1-.6c-.3 0-.5-.2-.5-.5h0v-2.7c0-.3.2-.5.5-.5s.5.2.5.5v2.7c0 .3-.3.5-.5.5-.1 0-.1 0 0 0h0zm55.1-4.8c-.3 0-.5-.2-.5-.5v-2.7c0-.3.2-.5.5-.5s.5.2.5.5v2.7c0 .3-.2.5-.5.5h0zm-55.1-.6c-.3 0-.5-.2-.5-.5h0v-2.7c0-.3.2-.5.5-.5s.5.2.5.5v2.7c0 .3-.3.5-.5.5-.1 0-.1 0 0 0h0zm55.1-4.8c-.3 0-.5-.2-.5-.5v-2.7c0-.3.2-.5.5-.5s.5.2.5.5h0v2.7c0 .3-.2.5-.5.5h0zm-55.1-.6c-.3 0-.5-.2-.5-.5v-2.7c0-.3.2-.5.5-.5s.5.2.5.5v2.7c0 .3-.2.5-.5.5 0-.1-.1-.1 0 0h0zm55.1-4.8c-.3 0-.5-.2-.5-.5v-2.7c0-.3.2-.5.5-.5s.5.2.5.5v2.7c0 .3-.2.5-.5.5h0zm-55.2-.7c-.3 0-.5-.2-.5-.5v-2.7c0-.3.2-.5.5-.5s.5.2.5.5v2.7c0 .3-.2.5-.5.5h0zm55.2-4.8c-.3 0-.5-.2-.5-.5V169c0-.3.2-.5.5-.5s.5.2.5.5v2.7c0 .3-.2.5-.5.5 0 .1 0 .1 0 0h0zm-55.2-.6c-.3 0-.5-.2-.5-.5v-.1c0-.9.2-1.9.7-2.7.1-.3.4-.4.6-.3.3.1.4.4.3.6 0 0 0 .1-.1.1-.4.7-.6 1.5-.6 2.3v.1c.1.3-.1.5-.4.5h0zm2.4-4.7c-.2 0-.3-.1-.4-.2-.1-.2-.1-.5.1-.6h0l2.3-1.3c.2-.1.5-.1.7.2.1.2 0 .5-.2.7l-2.3 1.4-.2-.2h0zm52.8-.1c-.3 0-.5-.2-.5-.5v-2.7c0-.3.2-.5.5-.5s.5.2.5.5h0v2.7c0 .3-.2.5-.5.5h0zm-48.1-2.5c-.3 0-.5-.2-.5-.5 0-.2.1-.3.2-.4l2.3-1.4c.2-.1.5 0 .7.2.1.2.1.5-.2.7l-2.4 1.4c.1-.1 0 0-.1 0zm4.7-2.7c-.2 0-.3-.1-.4-.2-.1-.2-.1-.5.2-.7l2.3-1.4c.2-.1.5-.1.7.2s.1.5-.2.7l-2.3 1.4c-.2-.1-.3 0-.3 0h0zm43.4-.2c-.3 0-.5-.2-.5-.5v-2.7c0-.3.2-.5.5-.5s.5.2.5.5v2.8c0 .3-.2.5-.5.4h0zm-38.7-2.5c-.3 0-.5-.2-.5-.5 0-.2.1-.3.2-.4l2.3-1.4c.2-.1.5 0 .7.2.1.2.1.5-.2.7l-2.3 1.4c-.1-.1-.2 0-.2 0h0zm4.6-2.8c-.2 0-.3-.1-.4-.2-.1-.2-.1-.5.2-.7l2.3-1.4c.2-.1.5-.1.7.2.1.2 0 .5-.2.7l-2.3 1.4c-.1 0-.2.1-.3 0h0zm34.1-.1c-.3 0-.5-.2-.5-.5v-2.7c0-.3.2-.5.5-.5s.5.2.5.5v2.7c0 .3-.2.5-.5.5h0zm-29.4-2.6c-.3 0-.5-.2-.5-.5 0-.2.1-.3.2-.4l2.3-1.4c.2-.1.5-.1.7.2.1.2 0 .5-.2.7l-2.3 1.4s-.1.1-.2 0h0zm4.7-2.7c-.2 0-.3-.1-.4-.2-.1-.2 0-.5.2-.7l2.3-1.4c.2-.1.5 0 .7.2.1.2.1.5-.2.6l-2.3 1.4c-.1.1-.2.2-.3.1h0zm24.7-.1c-.3 0-.5-.2-.5-.5v-2.7c0-.3.2-.5.5-.5s.5.2.5.5h0v2.7c0 .3-.2.5-.5.5h0zm-20-2.6c-.2 0-.3-.1-.4-.2-.1-.2-.1-.5.2-.7l2.4-1.4c.2-.1.5-.1.6.2.1.2 0 .5-.2.7l-2.4 1.4h-.2 0zm4.7-2.7c-.3 0-.5-.2-.5-.5 0-.2.1-.3.2-.4l2.3-1.4c.2-.1.5-.1.7.2s.1.5-.2.7l-2.4 1.4h-.1 0zm15.3-.1c-.3 0-.5-.2-.5-.5V142c0-.3.2-.5.5-.5s.5.2.5.5v2.7c0 .3-.2.5-.5.5h0zm-10.6-2.6c-.2 0-.3-.1-.4-.2-.1-.2 0-.5.2-.7l2.3-1.4c.2-.1.5 0 .7.2.1.2.1.5-.2.7l-2.4 1.4h-.2 0zm4.7-2.7c-.2 0-.3-.1-.4-.2-.1-.2-.1-.5.2-.7l2.3-1.4c.2-.1.5-.1.7.2.1.2.1.5-.2.7l-2.3 1.4h-.3 0zm6-.1c-.3 0-.5-.2-.5-.5v-.1c0-.9-.3-1.5-.8-1.6-.3-.1-.4-.3-.4-.6.1-.3.3-.4.6-.4 1 .2 1.5 1.2 1.5 2.5v.1c0 .4-.2.6-.4.6-.1 0-.1 0 0 0h0z" class="P"/><path d="M141.2 202.2l50.4-29.1c1.3-.8 2.4 0 2.4 1.8v81.4c0 1.8-.9 3.5-2.4 4.5l-50.4 29.1c-1.3.8-2.4 0-2.4-1.8v-81.4c.1-1.8 1-3.5 2.4-4.5z" class="K"/><path d="M140.3 290.6h-.4c-.3-.1-.5-.3-.4-.6s.3-.5.6-.4h0c.3 0 .6 0 .9-.2l1.3-.7c.2-.1.5-.1.7.2.1.2.1.5-.2.7l-1.3.7c-.4.2-.8.3-1.2.3zm-1.4-2.2c-.3 0-.5-.2-.5-.5v-2.7c0-.3.2-.5.5-.5s.5.2.5.5h0v2.7c0 .3-.3.5-.5.5zm6-.1c-.3 0-.5-.2-.5-.5 0-.2.1-.3.2-.4l2.3-1.4c.2-.1.5-.1.7.2.1.2 0 .5-.2.7l-2.3 1.4h-.2 0zm4.6-2.7c-.3 0-.5-.2-.5-.5 0-.2.1-.3.2-.4l2.3-1.4c.2-.1.5 0 .7.2.1.2.1.5-.2.7l-2.3 1.4h-.2 0zm-10.6-2.6c-.3 0-.5-.2-.5-.5v-2.7c0-.3.2-.5.5-.5s.5.2.5.5h0v2.7c0 .3-.3.5-.5.5zm15.3-.1c-.2 0-.3-.1-.4-.2-.1-.2 0-.5.2-.6l2.3-1.4c.2-.1.5-.1.7.2.1.2.1.5-.2.7l-2.3 1.4c-.1-.1-.2-.1-.3-.1h0zm4.7-2.8c-.3 0-.5-.2-.5-.5 0-.2.1-.3.2-.4l2.4-1.4c.2-.1.5 0 .7.2.1.2.1.5-.2.7l-2.3 1.4c-.1 0-.2.1-.3 0h0zm-20-2.5c-.3 0-.5-.2-.5-.5v-2.7c0-.3.2-.5.5-.5s.5.2.5.5v2.7c0 .3-.2.5-.5.5h0zm24.7-.2c-.2 0-.3-.1-.4-.2-.1-.2-.1-.5.2-.7l2.3-1.4c.2-.2.5-.1.7.1s.1.5-.1.7c0 0-.1 0-.1.1l-2.3 1.4c-.2 0-.3.1-.3 0h0zm4.7-2.7c-.3 0-.5-.2-.5-.5 0-.2.1-.3.2-.4l2.3-1.4c.2-.1.5-.1.7.2.1.2 0 .5-.2.7l-2.3 1.4h-.2 0zm-29.4-2.5c-.3 0-.5-.2-.5-.5V269c0-.3.2-.5.5-.5s.5.2.5.5v2.7c0 .3-.2.5-.5.5h0zm34-.2c-.2 0-.3-.1-.4-.2-.1-.2 0-.5.2-.7l2.3-1.4c.2-.1.5 0 .7.2.1.2.1.5-.2.7l-2.4 1.4s-.1.1-.2 0h0zm4.7-2.7c-.2 0-.3-.1-.4-.2-.1-.2-.1-.5.2-.7l2.3-1.4c.2-.1.5-.1.6.2.1.2.1.5-.2.7l-2.3 1.4h-.2 0zm-38.7-2.5c-.3 0-.5-.2-.5-.5v-2.7c0-.3.2-.5.5-.5s.5.2.5.5v2.7c0 .3-.2.5-.5.5h0zm43.4-.2c-.3 0-.5-.2-.5-.5 0-.2.1-.3.2-.4l2.3-1.4c.2-.1.5-.1.7.2.1.2.1.5-.2.7h0l-2.3 1.4h-.2 0zm4.7-2.7c-.2 0-.3-.1-.4-.2-.1-.2 0-.5.2-.7l2.3-1.4c.2-.1.5 0 .7.2.1.2.1.5-.2.7l-2.3 1.4h-.3 0zm-48.1-2.5c-.3 0-.5-.2-.5-.5v-2.7c0-.3.2-.5.5-.5s.5.2.5.5v2.7c0 .3-.2.5-.5.5h0zm52.8-.2c-.2 0-.3-.1-.4-.2-.1-.2-.1-.5.2-.7.7-.5 1.2-1.1 1.6-1.8.1-.2.4-.4.6-.3s.4.4.3.6v.1c-.4.9-1.1 1.7-1.9 2.2-.3.1-.3.1-.4.1h0zm2.3-4.6c-.3 0-.5-.2-.5-.5v-2.7c0-.3.2-.5.5-.5s.5.2.5.5h0v2.7c0 .3-.2.5-.5.5zm-55.1-.6c-.3 0-.5-.2-.5-.5v-2.7c0-.3.2-.5.5-.5s.5.2.5.5v2.7c0 .3-.3.5-.5.5zm55.1-4.8c-.3 0-.5-.2-.5-.5V248c0-.3.2-.5.5-.5s.5.2.5.5h0v2.7c0 .3-.2.5-.5.5zm-55.2-.6c-.3 0-.5-.2-.5-.5v-2.7c0-.3.2-.5.5-.5s.5.2.5.5v2.7c.1.3-.2.5-.5.5h0 0zm55.2-4.8c-.3 0-.5-.2-.5-.5v-2.7c0-.3.2-.5.5-.5s.5.2.5.5v2.7c0 .3-.2.5-.5.5zm-55.2-.6c-.3 0-.5-.2-.5-.5V242c0-.3.2-.5.5-.5s.5.2.5.5v2.7c0 .3-.2.5-.5.5h0zm55.2-4.8c-.3 0-.5-.2-.5-.5v-2.7c0-.3.2-.5.5-.5s.5.2.5.5v2.7c0 .3-.2.5-.5.5zm-55.2-.6c-.3 0-.5-.2-.5-.5v-2.7c0-.3.2-.5.5-.5s.5.2.5.5v2.7c0 .2-.2.5-.5.5h0 0zM194 235c-.3 0-.5-.2-.5-.5v-2.7c0-.3.2-.5.5-.5s.5.2.5.5v2.7c0 .3-.2.5-.5.5zm-55.2-.6c-.3 0-.5-.2-.5-.5v-2.7c0-.3.2-.5.5-.5s.5.2.5.5v2.7c0 .3-.2.4-.5.5h0zm55.2-4.8c-.3 0-.5-.2-.5-.5v-2.7c0-.3.2-.5.5-.5s.5.2.5.5h0v2.7c0 .2-.2.5-.5.5zm-55.2-.7c-.3 0-.5-.2-.5-.5v-2.7c0-.3.2-.5.5-.5s.5.2.5.5v2.7c.1.3-.2.5-.5.5h0 0zm55.2-4.8c-.3 0-.5-.2-.5-.5V221c0-.3.2-.5.5-.5s.5.2.5.5v2.7c0 .3-.2.5-.5.4zm-55.2-.6c-.3 0-.5-.2-.5-.5v-2.7c0-.3.2-.5.5-.5s.5.2.5.5v2.7c.1.3-.1.5-.5.5h0 0zm55.2-4.8c-.3 0-.5-.2-.5-.5v-2.7c0-.3.2-.5.5-.5s.5.2.5.5v2.7c0 .3-.2.5-.5.5zm-55.2-.6c-.3 0-.5-.2-.5-.5v-2.7c0-.3.2-.5.5-.5s.5.2.5.5v2.7c.1.3-.2.5-.5.5h0 0zm55.2-4.8c-.3 0-.5-.2-.5-.5v-2.7c0-.3.2-.5.5-.5s.5.2.5.5v2.7c0 .3-.2.5-.5.5zm-55.2-.6c-.3 0-.5-.2-.5-.5v-2.7c0-.3.2-.5.5-.5s.5.2.5.5v2.7c0 .3-.2.5-.5.5h0 0zm55.2-4.8c-.3 0-.5-.2-.5-.5v-2.7c0-.3.2-.5.5-.5s.5.2.5.5v2.7c0 .3-.2.5-.5.5zm-55.2-.6c-.3 0-.5-.2-.5-.5v-.1c0-.9.2-1.9.7-2.7.1-.2.4-.3.6-.2s.3.4.2.6c-.4.7-.6 1.5-.6 2.3v.1c.1.3-.1.5-.4.5h0zm2.6-4.7l-.5-.8 2.4-1.4c.2-.1.5-.1.7.2.1.2.1.5-.2.7h0l-2.4 1.3zm52.6-.1c-.3 0-.5-.2-.5-.5v-2.7c0-.3.2-.5.5-.5s.5.2.5.5v2.7c0 .3-.2.5-.5.5zm-52.8-.3h0zm4.7-2.3c-.3 0-.5-.2-.5-.5 0-.2.1-.3.2-.4l2.3-1.4c.2-.1.5-.1.7.2.1.2 0 .5-.2.7l-2.3 1.4h-.2 0zm4.7-2.7c-.3 0-.5-.2-.5-.5 0-.2.1-.3.2-.4l2.3-1.4c.2-.1.5 0 .7.2.1.2.1.5-.2.7l-2.3 1.4h-.2 0zm43.4-.1c-.3 0-.5-.2-.5-.5v-2.7c0-.3.2-.5.5-.5s.5.2.5.5v2.7c0 .3-.2.5-.5.5h0zm-38.7-2.6c-.2 0-.3-.1-.4-.2-.1-.2-.1-.5.2-.7l2.3-1.4c.2-.1.5-.1.7.2.1.2.1.5-.2.7l-2.3 1.4h-.3 0zm4.6-2.7c-.3 0-.5-.2-.5-.5 0-.2.1-.3.2-.4l2.3-1.4c.2-.1.5 0 .7.2.1.2.1.5-.2.7l-2.3 1.4h-.2 0zm34.1-.1c-.3 0-.5-.2-.5-.5v-2.7c0-.3.2-.5.5-.5s.5.2.5.5v2.7c0 .3-.2.5-.5.5zm-29.4-2.6c-.2 0-.3-.1-.4-.2-.1-.2-.1-.5.2-.7l2.3-1.4c.2-.1.5 0 .7.2.1.2.1.5-.2.7l-2.3 1.4h-.3 0zm4.7-2.7c-.2 0-.3-.1-.4-.2-.1-.2-.1-.5.2-.7l2.4-1.4c.2-.1.5-.1.7.2.1.2 0 .5-.2.7l-2.3 1.4h-.4 0zm24.7-.1c-.3 0-.5-.2-.5-.5v-2.7c0-.3.2-.5.5-.5s.5.2.5.5v2.7c0 .3-.2.5-.5.5zm-20-2.6c-.2 0-.3-.1-.4-.2-.1-.2 0-.5.2-.7l2.3-1.4c.2-.1.5 0 .7.2.1.2.1.5-.2.7l-2.3 1.4h-.3 0zm4.7-2.7c-.2 0-.3-.1-.4-.2-.1-.2-.1-.5.2-.7l2.3-1.4c.2-.1.5-.1.7.2s.1.5-.2.7L179 181h-.3 0zm15.3-.1c-.3 0-.5-.2-.5-.5v-2.7c0-.3.2-.5.5-.5s.5.2.5.5h0v2.7c0 .3-.2.5-.5.5h0zm-10.6-2.6c-.3 0-.5-.2-.5-.5 0-.2.1-.3.2-.4l2.3-1.4c.2-.1.5-.1.7.2.1.2.1.5-.2.7l-2.3 1.4h-.2 0zm4.6-2.7c-.2 0-.3-.1-.4-.2-.1-.2 0-.5.2-.7l2.3-1.4c.2-.1.5 0 .6.3.1.2 0 .4-.2.6l-2.4 1.4c.1 0 0 0-.1 0h0zm6-.1c-.3 0-.5-.2-.5-.5v-.1c0-.9-.3-1.5-.8-1.6-.3-.1-.4-.3-.4-.6.1-.3.3-.4.6-.4 1 .2 1.6 1.2 1.6 2.5v.2c0 .3-.2.5-.5.5h0z" class="P"/><path d="M223.9 191.4l-21.6 12.5c-.6.4-1.2 0-1.2-.9v-33.8c0-.9.5-1.7 1.2-2.2l21.6-12.5c.6-.4 1.2 0 1.2.9v33.8c-.1.8-.5 1.6-1.2 2.2z" class="K"/><path d="M202.4 204.2c-.3 0-.5-.2-.5-.5 0-.2.1-.3.2-.4l2.4-1.4c.2-.1.5-.1.7.2.1.2.1.5-.2.7h0l-2.4 1.4h-.2zm-1.3-1.4c-.3 0-.5-.2-.5-.5v-2.8c0-.3.2-.5.5-.5s.5.2.5.5h0v2.8c0 .3-.3.5-.5.5zm6.1-1.3c-.2 0-.3-.1-.4-.2-.1-.2-.1-.5.2-.7l2.4-1.4c.2-.1.5-.1.6.2.1.2 0 .5-.2.7l-2.4 1.4h-.2zm4.7-2.8c-.2 0-.3-.1-.4-.2-.1-.2 0-.5.2-.7l2.4-1.4c.2-.1.5-.1.7.2.1.2 0 .5-.2.7l-2.4 1.4h-.3 0zm-10.8-1.4c-.3 0-.5-.2-.5-.5V194c0-.3.2-.5.5-.5s.5.2.5.5v2.8c0 .3-.2.5-.5.5zm15.6-1.3c-.2 0-.3-.1-.4-.2-.1-.2 0-.5.2-.7l2.4-1.4c.2-.1.5 0 .7.2.1.2.1.5-.2.7L217 196h-.3zm4.8-2.8c-.2 0-.3-.1-.4-.2-.1-.2-.1-.5.2-.7l2.4-1.4c.2-.1.5-.1.7.2.1.2.1.5-.1.6l-.1.1-2.3 1.4h-.4 0zm-20.4-1.4c-.3 0-.5-.2-.5-.5v-2.8c0-.3.2-.5.5-.5s.5.2.5.5v2.8c-.1.3-.3.5-.5.5h0zm24-2.3c-.3 0-.5-.2-.5-.5v-2.8c0-.3.2-.5.5-.5s.5.2.5.5v2.8c0 .3-.3.5-.5.5-.1 0-.1 0 0 0h0zm-24-3.2c-.3 0-.5-.2-.5-.5V183c0-.3.2-.5.5-.5s.5.2.5.5v2.8c0 .3-.3.5-.5.5h0zM225 184c-.3 0-.5-.2-.5-.5v-2.8c0-.3.2-.5.5-.5s.5.2.5.5v2.8c0 .3-.2.5-.5.5zm-24-3.2c-.3 0-.5-.2-.5-.5v-2.8c0-.3.2-.5.5-.5s.5.2.5.5v2.8c0 .3-.2.5-.5.5h0zm24-2.3c-.3 0-.5-.2-.5-.5v-2.8c0-.3.2-.5.5-.5s.5.2.5.5v2.7c0 .4-.2.6-.5.6h0zm-24-3.2c-.3 0-.5-.2-.5-.5V172c0-.3.2-.5.5-.5s.5.2.5.5v2.8c0 .3-.2.5-.5.5h0zm24-2.3c-.3 0-.5-.2-.5-.5v-2.8c0-.3.2-.5.5-.5s.5.2.5.5v2.8c0 .3-.2.5-.5.5h0zm-24-3.2c-.3 0-.5-.2-.5-.5v-.1c0-1.1.5-2 1.4-2.6.2-.1.5-.1.7.2s.1.5-.2.7h0c-.6.4-.9 1.1-.9 1.8v.1c0 .2-.2.4-.5.4h0zm24-2.3c-.3 0-.5-.2-.5-.5v-2.8c0-.3.2-.5.5-.5s.5.2.5.5h0v2.8c0 .3-.2.5-.5.5h0zm-20.4-1.5c-.2 0-.3-.1-.4-.2-.1-.2 0-.5.2-.7l2.4-1.4c.2-.1.5-.1.7.2.1.2 0 .5-.2.7l-2.4 1.4h-.3zm4.8-2.8c-.3 0-.5-.2-.5-.5 0-.2.1-.3.2-.4l2.4-1.4c.2-.1.5 0 .7.2.1.2.1.5-.2.7l-2.4 1.4c-.1 0-.1.1-.2 0h0zm15.6-1.3c-.3 0-.5-.2-.5-.5v-2.8c0-.3.2-.5.5-.5s.5.2.5.5v2.8c0 .3-.2.5-.5.5zm-10.9-1.4c-.2 0-.3-.1-.4-.2-.1-.2-.1-.5.2-.6l2.4-1.4c.2-.1.5-.1.7.2.1.2.1.5-.2.7h0l-2.4 1.4c-.1-.1-.2-.1-.3-.1h0zm4.8-2.7c-.2 0-.3-.1-.4-.2-.1-.2-.1-.5.2-.7l2.4-1.4c.2-.1.5-.1.7.2.1.2 0 .5-.2.7l-2.4 1.4h-.3 0zm6.1-1.4c-.3 0-.5-.2-.5-.5v-.6c0-.3-.1-.5-.2-.5s-.2 0-.2.1l-.2.1c-.2.1-.5.1-.7-.2-.1-.2-.1-.5.2-.7l.2-.1c.2-.1.5-.2.7-.2.6 0 1.2.5 1.2 1.5v.6c0 .3-.2.5-.5.5z" class="P"/><path d="M255.6 173.1L234 185.6c-.6.4-1.2 0-1.2-.9v-33.8c0-.9.5-1.7 1.2-2.2l21.6-12.5c.7-.4 1.2 0 1.2.9v33.8c-.1.8-.5 1.7-1.2 2.2z" class="K"/><path d="M234.1 185.9c-.2 0-.3-.1-.4-.2-.1-.2-.1-.5.2-.7l2.4-1.4c.2-.1.5-.1.7.2.1.2.1.5-.2.7l-2.4 1.4h-.3zm-1.4-1.4c-.3 0-.5-.2-.5-.5v-2.8c0-.3.2-.5.5-.5s.5.2.5.5v2.7c.1.4-.1.6-.5.6h0 0zm6.2-1.3c-.2 0-.3-.1-.4-.2-.1-.2 0-.5.2-.7l2.4-1.4c.2-.2.5-.1.7.1s.1.5-.1.7c0 0-.1 0-.1.1l-2.4 1.4h-.3 0zm4.7-2.8c-.2 0-.3-.1-.4-.2-.1-.2 0-.5.2-.7l2.4-1.4c.2-.1.5-.1.6.2.1.2.1.5-.2.7l-2.4 1.4h-.2 0zm-10.9-1.4c-.3 0-.5-.2-.5-.5v-2.8c0-.3.2-.5.5-.5s.5.2.5.5v2.8c.1.3-.1.5-.5.5h0zm15.7-1.3c-.2 0-.3-.1-.4-.2-.1-.2-.1-.5.2-.7l2.4-1.4c.2-.1.5-.1.7.2.1.2.1.5-.2.7h0l-2.4 1.4h-.3 0zm4.8-2.8c-.2 0-.3-.1-.4-.2-.1-.2-.1-.5.2-.7l2.4-1.4.5.8-2.4 1.4c-.2.1-.3.1-.3.1h0zm-20.5-1.4c-.3 0-.5-.2-.5-.5v-2.8c0-.3.2-.5.5-.5s.5.2.5.5h0v2.7c.1.4-.1.6-.5.6h0 0zm24-2.3c-.3 0-.5-.2-.5-.5v-2.8c0-.3.2-.5.5-.5s.5.2.5.5h0v2.8c.1.2-.2.5-.5.5h0 0zm-24-3.2c-.3 0-.5-.2-.5-.5v-2.8c0-.3.2-.5.5-.5s.5.2.5.5v2.8c.1.3-.2.5-.5.5h0 0zm24-2.4c-.3 0-.5-.2-.5-.5v-2.8c0-.3.2-.5.5-.5s.5.2.5.5h0v2.8c.1.3-.2.6-.5.5 0 .1 0 .1 0 0h0zm-24-3.1c-.3 0-.5-.2-.5-.5v-2.8c0-.3.2-.5.5-.5s.5.2.5.5v2.8c.1.3-.1.5-.5.5h0 0zm24-2.4c-.3 0-.5-.2-.5-.5v-2.8c0-.3.2-.5.5-.5s.5.2.5.5v2.8c.1.3-.2.6-.5.5.1.1 0 .1 0 0h0zm-24-3.1c-.3 0-.5-.2-.5-.5v-2.8c0-.3.2-.5.5-.5s.5.2.5.5h0v2.8c.1.3-.1.5-.5.5h0 0zm24-2.4c-.3 0-.5-.2-.5-.5h0v-2.8c0-.3.2-.5.5-.5s.5.2.5.5v2.8c.1.3-.2.5-.5.5.1.1 0 .1 0 0h0zm-24-3.1c-.3 0-.5-.2-.5-.5v-.1c0-1.1.5-2 1.4-2.6.2-.1.5-.1.7.2s.1.5-.2.7c-.6.4-.9 1.1-.9 1.8v.1c0 .2-.2.4-.5.4h0zm24-2.4c-.3 0-.5-.2-.5-.5v-2.8c0-.3.2-.5.5-.5s.5.2.5.5v2.8c.1.3-.2.5-.5.5.1.1 0 .1 0 0h0zm-20.4-1.4c-.2 0-.3-.1-.4-.2-.1-.2 0-.5.2-.7l2.4-1.4c.2-.1.5-.1.7.2.1.2 0 .5-.2.7l-2.4 1.4h-.3 0zm4.8-2.7c-.2 0-.3-.1-.4-.2-.1-.2-.1-.5.2-.7l2.4-1.4c.2-.1.5-.1.7.2.1.2.1.5-.2.7h0l-2.4 1.4h-.3 0zm15.6-1.4c-.3 0-.5-.2-.5-.5h0v-2.8c0-.3.2-.5.5-.5s.5.2.5.5v2.8c.1.3-.2.5-.5.5h0 0zm-10.9-1.4c-.2 0-.3-.1-.4-.2-.1-.2 0-.5.2-.7l2.4-1.3c.2-.1.5-.1.7.2.1.2 0 .5-.2.7l-2.4 1.4c-.1 0-.2 0-.3-.1h0zm4.8-2.7c-.2 0-.3-.1-.4-.2-.1-.2-.1-.5.2-.7l2.4-1.4c.2-.1.5-.1.7.2.1.2.1.5-.2.7l-2.4 1.4h-.3 0zm6.1-1.4c-.3 0-.5-.2-.5-.5v-.6c0-.3-.1-.5-.2-.5s-.2 0-.2.1l-.2.1c-.2.1-.5 0-.7-.2-.1-.2-.1-.5.2-.7l.2-.1c.2-.1.5-.2.7-.2.6 0 1.2.5 1.2 1.5v.6c0 .3-.2.5-.5.5h0z" class="P"/><path d="M287.2 154.8l-21.6 12.5c-.6.4-1.2 0-1.2-.9v-33.8c0-.9.4-1.7 1.2-2.2l21.6-12.5c.6-.4 1.2 0 1.2.9v33.8c0 .8-.4 1.7-1.2 2.2z" class="K"/><path d="M265.8 167.6c-.2 0-.3-.1-.4-.2-.1-.2 0-.5.2-.7l2.4-1.4c.2-.1.5-.1.7.2s.1.5-.2.7l-2.4 1.4h-.3zm-1.4-1.4c-.3 0-.5-.2-.5-.5h0V163c0-.3.2-.5.5-.5s.5.2.5.5v2.8c0 .2-.2.4-.5.4zm6.1-1.3c-.3 0-.5-.2-.5-.5 0-.2.1-.3.2-.4l2.4-1.4c.2-.1.5 0 .7.2.1.2.1.5-.2.7l-2.4 1.4h-.2zm4.8-2.8c-.2 0-.3-.1-.4-.2-.1-.2 0-.5.2-.7l2.4-1.4c.2-.1.5-.1.6.2.1.2 0 .5-.2.7l-2.4 1.4s-.1.1-.2 0zm-10.9-1.4c-.3 0-.5-.2-.5-.5v-2.8c0-.3.2-.5.5-.5s.5.2.5.5v2.8c0 .3-.2.5-.5.5zm15.7-1.3c-.2 0-.3-.1-.4-.2-.1-.2-.1-.5.2-.7l2.4-1.4c.2-.1.5-.1.7.2.1.2 0 .5-.2.7l-2.4 1.4h-.3 0zm4.7-2.8c-.2 0-.3-.1-.4-.2-.1-.2 0-.5.2-.7l2.4-1.4.5.8h0l-2.4 1.4c-.1.1-.2.1-.3.1h0zm-20.4-1.4c-.3 0-.5-.2-.5-.5V152c0-.3.2-.5.5-.5s.5.2.5.5v2.8c0 .2-.2.4-.5.4h0zm24-2.3c-.3 0-.5-.2-.5-.5v-2.8c0-.3.2-.5.5-.5s.5.2.5.5v2.8c0 .3-.2.5-.5.5h0zm-24-3.2c-.3 0-.5-.2-.5-.5v-2.8c0-.3.2-.5.5-.5s.5.2.5.5v2.8c0 .3-.2.5-.5.5h0zm24-2.3c-.3 0-.5-.2-.5-.5v-2.8c0-.3.2-.5.5-.5s.5.2.5.5v2.8c0 .2-.2.5-.5.5h0zm-24-3.2c-.3 0-.5-.2-.5-.5V141c0-.3.2-.5.5-.5s.5.2.5.5v2.8c0 .2-.2.4-.5.4h0zm24-2.3c-.3 0-.5-.2-.5-.5v-2.8c0-.3.2-.5.5-.5s.5.2.5.5v2.8c0 .2-.2.5-.5.5h0zm-24-3.2c-.3 0-.5-.2-.5-.5v-2.8c0-.3.2-.5.5-.5s.5.2.5.5v2.8c0 .3-.2.5-.5.5h0zm24-2.3c-.3 0-.5-.2-.5-.5v-2.8c0-.3.2-.5.5-.5s.5.2.5.5v2.8c0 .2-.2.5-.5.5h0zm-24-3.2c-.3 0-.5-.2-.5-.5v-.1c0-1.1.5-2 1.4-2.6.2-.1.5-.1.7.2.1.2.1.5-.2.7-.6.4-.9 1.1-.9 1.8v.1c0 .2-.2.4-.5.4h0zm24-2.3c-.3 0-.5-.2-.5-.5h0v-2.8c0-.3.2-.5.5-.5s.5.2.5.5v2.8c0 .2-.2.5-.5.5h0zm-20.4-1.5c-.2 0-.3-.1-.4-.2-.1-.2-.1-.5.2-.7l2.4-1.4c.2-.1.5-.1.7.2.1.2 0 .5-.2.7l-2.4 1.4h-.3zm4.8-2.7c-.2 0-.3-.1-.4-.2-.1-.2 0-.5.2-.7l2.4-1.4c.2-.1.5-.1.7.2s.1.5-.2.7h0l-2.4 1.4h-.3 0zm15.6-1.4c-.3 0-.5-.2-.5-.5V122c0-.3.2-.5.5-.5s.5.2.5.5v2.8c.1.3-.1.5-.5.5.1.1 0 .1 0 0h0zm-10.9-1.3c-.3 0-.5-.2-.5-.5 0-.2.1-.3.2-.4l2.4-1.4c.2-.1.5 0 .7.2.1.2.1.5-.2.7l-2.4 1.4h-.2zm4.8-2.8c-.2 0-.3-.1-.4-.2-.1-.2-.1-.5.2-.7l2.4-1.4c.2-.1.5-.1.6.2.1.2 0 .5-.2.7l-2.4 1.4h-.2 0zm6.1-1.3c-.3 0-.5-.2-.5-.5v-.6c0-.3-.1-.5-.2-.5s-.2 0-.2.1l-.2.1c-.2.1-.5 0-.7-.2-.1-.2-.1-.5.2-.7l.2-.1c.2-.1.5-.2.7-.2.6 0 1.2.5 1.2 1.5v.6c0 .3-.3.5-.5.5h0z" class="P"/><path d="M286.9 260.2l-84.3 48.7c-.8.5-1.5 0-1.5-1.1v-90.2c0-1.1.6-2.2 1.5-2.9l84.3-48.7c.8-.5 1.5 0 1.5 1.1v90.2c0 1.2-.6 2.2-1.5 2.9z" class="K"/><path d="M202 309.5c-.7 0-1.3-.6-1.3-1.3 0-.3.1-.5.4-.6.3 0 .5.1.6.4 0 .2.1.5.4.5.1 0 .3 0 .4-.1l.6-.4c.2-.1.5-.1.7.2.1.2.1.5-.2.7l-.6.4c-.4.2-.7.2-1 .2zm3.5-1.8c-.2 0-.3-.1-.4-.2-.1-.2-.1-.5.2-.7l2.3-1.4c.2-.1.5-.1.7.2.1.2.1.5-.2.7h0l-2.3 1.3c-.1.1-.2.1-.3.1h0zm-4.4-1.7c-.3 0-.5-.2-.5-.5h0v-2.7c0-.3.2-.5.5-.5s.5.2.5.5v2.7c0 .3-.2.5-.5.5zm9.1-1c-.2 0-.3-.1-.4-.2-.1-.2 0-.5.2-.7l2.3-1.3c.2-.1.5-.1.6.2.1.2.1.5-.2.7l-2.3 1.3h-.2 0zm4.6-2.7c-.3 0-.5-.2-.5-.5 0-.2.1-.3.2-.4l2.3-1.4c.2-.1.5 0 .7.2.1.2.1.5-.2.7l-2.4 1.3c0 .1 0 .1-.1.1h0zm-13.7-1.7c-.3 0-.5-.2-.5-.5h0v-2.7c0-.3.2-.5.5-.5s.5.2.5.5h0v2.7c0 .3-.3.5-.5.5h0zm18.3-1c-.2 0-.3-.1-.4-.2-.1-.2 0-.5.2-.7l2.3-1.3c.2-.1.5-.1.7.2.1.2.1.5-.2.7l-2.3 1.3h-.3 0zm4.7-2.6c-.3 0-.5-.2-.5-.5 0-.2.1-.3.2-.4l2.3-1.3c.2-.1.5-.1.7.2.1.2.1.5-.2.7h0l-2.3 1.3c0-.1-.1-.1-.2 0h0zm-23-1.7c-.3 0-.5-.2-.5-.5h0v-2.7c0-.3.2-.5.5-.5s.5.2.5.5v2.7c0 .2-.2.5-.5.5 0-.1 0-.1 0 0h0zm27.7-1c-.2 0-.3-.1-.4-.2-.1-.2 0-.5.2-.7l2.3-1.3c.2-.1.5-.1.7.2.1.2 0 .5-.2.7l-2.4 1.3c-.1-.1-.2-.1-.2 0h0zm4.7-2.7c-.3 0-.5-.2-.5-.5 0-.2.1-.3.2-.4l2.3-1.3c.2-.1.5-.1.7.2.1.2.1.5-.2.7h0l-2.3 1.3h-.2 0zm-32.4-1.7c-.3 0-.5-.2-.5-.5v-2.7c0-.3.2-.5.5-.5s.5.2.5.5v2.7c0 .3-.2.5-.5.5h0zm37-1c-.2 0-.3-.1-.4-.2-.1-.2-.1-.5.2-.7l2.3-1.3c.2-.1.5-.1.7.2.1.2 0 .5-.2.7l-2.3 1.4c-.1-.1-.2-.1-.3-.1h0zm4.6-2.7c-.2 0-.3-.1-.4-.2-.1-.2 0-.5.2-.7l2.3-1.3c.2-.1.5 0 .6.3.1.2 0 .4-.2.6l-2.3 1.3h-.2 0zm-41.6-1.7c-.3 0-.5-.2-.5-.5v-2.7c0-.3.2-.5.5-.5s.5.2.5.5h0v2.6c0 .4-.2.6-.5.6h0zm46.3-1c-.3 0-.5-.2-.5-.5 0-.2.1-.3.2-.4l2.3-1.4c.2-.1.5 0 .7.2.1.2.1.5-.2.7l-2.3 1.3c0 .1-.1.1-.2.1h0zm4.6-2.7c-.2 0-.3-.1-.4-.2-.1-.2 0-.5.2-.7l2.3-1.3c.2-.1.5 0 .6.3.1.2 0 .4-.2.6l-2.3 1.3h-.2 0zm-51-1.6c-.3 0-.5-.2-.5-.5V276c0-.3.2-.5.5-.5s.5.2.5.5v2.7c0 .3-.2.4-.5.5h0zm55.7-1c-.3 0-.5-.2-.5-.5 0-.2.1-.3.2-.4l2.3-1.4c.2-.1.5-.1.7.2.1.2 0 .5-.2.7l-2.3 1.3c-.1 0-.2 0-.2.1h0zm4.6-2.7c-.2 0-.3-.1-.4-.2-.1-.2 0-.5.2-.7l2.3-1.3c.2-.1.5-.1.6.2.1.2 0 .5-.2.7l-2.3 1.3c0-.1-.1-.1-.2 0h0zm-60.3-1.7c-.3 0-.5-.2-.5-.5v-2.7c0-.3.2-.5.5-.5s.5.2.5.5v2.7c.1.3-.2.5-.5.5h0 0zm65-1c-.2 0-.3-.1-.4-.2-.1-.2-.1-.5.2-.7l2.3-1.4c.2-.1.5-.1.7.2s.1.5-.2.7h0l-2.3 1.3c-.2 0-.2.1-.3.1h0zm4.6-2.7c-.2 0-.3-.1-.4-.2-.1-.2-.1-.5.2-.7l2.3-1.3c.2-.1.5-.1.7.2.1.2.1.5-.2.7l-2.3 1.3c-.1-.1-.2 0-.3 0h0zm-69.6-1.7c-.3 0-.5-.2-.5-.5v-2.7c0-.3.2-.5.5-.5s.5.2.5.5v2.7c.1.3-.2.5-.5.5h0 0zm74.3-1c-.3 0-.5-.2-.5-.5 0-.2.1-.3.2-.4l2.3-1.3c.2-.1.5 0 .7.2.1.2.1.5-.2.7l-2.3 1.3h-.2 0zm4.6-2.7c-.3 0-.5-.2-.5-.5 0-.2.1-.3.2-.4l2.3-1.3c.2-.1.5-.1.7.2.1.2.1.5-.2.7l-2.3 1.4c0-.1-.1-.1-.2-.1h0zm-78.8-1.7c-.3 0-.5-.2-.5-.5v-2.7c0-.3.2-.5.5-.5s.5.2.5.5v2.7c0 .3-.2.5-.5.5zm83.5-1c-.2 0-.3-.1-.4-.2-.1-.2 0-.5.2-.7l2.3-1.3c.2-.1.5-.1.7.2.1.2.1.5-.1.7h-.1l-2.3 1.4c-.2-.1-.3-.1-.3-.1zm3.7-3.6h-.1c-.3-.1-.4-.3-.4-.6 0-.2.1-.4.1-.5v-2c0-.3.2-.5.5-.5s.5.2.5.5v2c0 .3 0 .5-.1.8 0 .2-.2.4-.5.3h0zm-87.2-.8c-.3 0-.5-.2-.5-.5v-2.7c0-.3.2-.5.5-.5s.5.2.5.5v2.7c0 .3-.2.5-.5.5 0 .1 0 .1 0 0h0zm87.3-4.5c-.3 0-.5-.2-.5-.5v-2.7c0-.3.2-.5.5-.5s.5.2.5.5v2.7c0 .2-.2.5-.5.5h0zm-87.3-.8c-.3 0-.5-.2-.5-.5v-2.7c0-.3.2-.5.5-.5s.5.2.5.5v2.7c0 .2-.2.5-.5.5h0zm87.3-4.6c-.3 0-.5-.2-.5-.5v-2.7c0-.3.2-.5.5-.5s.5.2.5.5v2.7c0 .3-.2.5-.5.5h0zm-87.3-.8c-.3 0-.5-.2-.5-.5v-2.7c0-.3.2-.5.5-.5s.5.2.5.5v2.7c0 .3-.2.5-.5.5h0zm87.3-4.6c-.3 0-.5-.2-.5-.5v-2.7c0-.3.2-.5.5-.5s.5.2.5.5v2.7c0 .3-.2.5-.5.5h0 0zm-87.3-.8c-.3 0-.5-.2-.5-.5v-2.7c0-.3.2-.5.5-.5s.5.2.5.5h0v2.7c0 .3-.2.5-.5.5h0zm87.3-4.5c-.3 0-.5-.2-.5-.5v-2.7c0-.3.2-.5.5-.5s.5.2.5.5v2.7c0 .2-.1.5-.5.5h0zm-87.4-.8c-.3 0-.5-.2-.5-.5V233c0-.3.2-.5.5-.5s.5.2.5.5v2.7c.1.3-.2.5-.5.5h0 0zm87.4-4.6c-.3 0-.5-.2-.5-.5h0v-2.7c0-.3.2-.5.5-.5s.5.2.5.5v2.7c0 .3-.2.5-.5.5h0zm-87.4-.8c-.3 0-.5-.2-.5-.5v-2.7c0-.3.2-.5.5-.5s.5.2.5.5v2.7c0 .3-.2.5-.5.5h0zm87.4-4.5c-.3 0-.5-.2-.5-.5h0v-2.7c0-.3.2-.5.5-.5s.5.2.5.5v2.7c0 .2-.2.4-.5.5 0-.1 0-.1 0 0h0zm-87.4-.8c-.3 0-.5-.2-.5-.5v-2.7c0-.3.2-.5.5-.5s.5.2.5.5v2.7c0 .2-.2.4-.5.5h0zm87.4-4.6c-.3 0-.5-.2-.5-.5h0v-2.7c0-.3.2-.5.5-.5s.5.2.5.5v2.7c0 .3-.2.5-.5.5h0zm-87.4-.8c-.3 0-.5-.2-.5-.5v-2c0-.3 0-.5.1-.8s.3-.4.6-.4c.3.1.4.3.4.6 0 .2-.1.4-.1.6v2c0 .3-.2.5-.5.5h0zm87.4-4.6c-.3 0-.5-.2-.5-.5h0v-2.7c0-.3.2-.5.5-.5s.5.2.5.5v2.6c0 .4-.2.6-.5.6h0zm-85.6-.4l-.5-.8h.1 0l2.3-1.3c.2-.1.5 0 .7.2.1.2.1.5-.2.7l-2.4 1.2zm4.4-2.6c-.2 0-.3-.1-.4-.2-.1-.2 0-.5.2-.7l2.3-1.3c.2-.1.5-.1.6.2.1.2.1.5-.2.7l-2.3 1.3h-.2 0zm81.2-2.3c-.3 0-.5-.2-.5-.5V207c0-.3.2-.5.5-.5s.5.2.5.5v2.7c0 .2-.2.4-.5.5 0-.1 0-.1 0 0h0zm-76.6-.4c-.2 0-.3-.1-.4-.2-.1-.2 0-.5.2-.7l2.3-1.3c.2-.1.5 0 .7.2.1.2.1.5-.2.7l-2.3 1.3h-.3 0zm4.7-2.7c-.3 0-.5-.2-.5-.5 0-.2.1-.3.2-.4l2.3-1.3c.2-.1.5-.1.7.2s.1.5-.2.7h0l-2.3 1.4c0-.1-.1-.1-.2-.1h0zm71.9-2.3c-.3 0-.5-.2-.5-.5v-2.7c0-.3.2-.5.5-.5s.5.2.5.5v2.7c0 .3-.2.5-.5.5h0zm-67.3-.3c-.3 0-.5-.2-.5-.5 0-.2.1-.3.2-.4l2.3-1.3c.2-.1.5-.1.7.2.1.2.1.5-.2.7h0l-2.3 1.3c0-.1-.1-.1-.2 0h0zm4.7-2.7c-.2 0-.3-.1-.4-.2-.1-.2 0-.5.2-.7l2.3-1.3c.2-.1.5-.1.7.2.1.2 0 .5-.2.7l-2.4 1.3c-.1-.1-.1-.1-.2 0h0zm62.6-2.4c-.3 0-.5-.2-.5-.5v-2.7c0-.3.2-.5.5-.5s.5.2.5.5h0v2.7c0 .3-.2.5-.5.5h0zm-58-.3c-.2 0-.3-.1-.4-.2-.1-.2-.1-.5.2-.7l2.3-1.3c.2-.1.5-.1.7.2.1.2.1.5-.2.7h0l-2.3 1.3c-.1-.1-.2 0-.3 0h0zm4.7-2.7c-.2 0-.3-.1-.4-.2-.1-.2-.1-.5.2-.7l2.3-1.4c.2-.1.5 0 .7.2.1.2.1.5-.2.7l-2.3 1.3c-.1.1-.2.1-.3.1h0zm53.3-2.4c-.3 0-.5-.2-.5-.5v-2.7c0-.3.2-.5.5-.5s.5.2.5.5v2.7c0 .3-.2.5-.5.5zm-48.6-.3c-.2 0-.3-.1-.4-.2-.1-.2-.1-.5.2-.7l2.3-1.3c.2-.1.5-.1.7.2.1.2.1.5-.2.7h0l-2.3 1.4c-.2-.1-.3-.1-.3-.1h0zm4.6-2.7c-.3 0-.5-.2-.5-.5 0-.2.1-.3.2-.4l2.3-1.4c.2-.1.5 0 .7.2.1.2.1.5-.2.7l-2.3 1.3c0 .1-.1.1-.2.1h0zm44-2.4c-.3 0-.5-.2-.5-.5v-2.7c0-.3.2-.5.5-.5s.5.2.5.5h0v2.7c0 .3-.2.5-.5.5h0 0zm-39.3-.3c-.2 0-.3-.1-.4-.2-.1-.2 0-.5.2-.7l2.3-1.3c.2-.1.5-.1.6.2.1.2 0 .5-.2.7l-2.3 1.3h-.2 0zm4.6-2.7c-.2 0-.3-.1-.4-.2-.1-.2 0-.5.2-.7l2.3-1.3c.2-.1.5-.1.7.2s.1.5-.2.7l-2.3 1.3h-.3 0zm34.7-2.3c-.3 0-.5-.2-.5-.5v-2.7c0-.3.2-.5.5-.5s.5.2.5.5v2.7c0 .2-.2.5-.5.5h0 0zm-30-.4c-.2 0-.3-.1-.4-.2-.1-.2 0-.5.2-.7l2.3-1.3c.2-.1.5-.1.6.2.1.2 0 .5-.2.7l-2.3 1.3h-.2 0zm4.7-2.6c-.3 0-.5-.2-.5-.5 0-.2.1-.3.2-.4l2.3-1.3c.2-.1.5-.1.7.2s.1.5-.2.7l-2.3 1.3c-.1-.1-.2 0-.2 0h0zm25.3-2.4c-.3 0-.5-.2-.5-.5v-2.7c0-.3.2-.5.5-.5s.5.2.5.5v2.7c.1.3-.1.5-.5.5h0 0zm-20.7-.3c-.2 0-.3-.1-.4-.2-.1-.2-.1-.5.2-.7l2.3-1.3c.2-.1.5-.1.7.2.1.2 0 .5-.2.7l-2.3 1.4c-.1-.1-.2-.1-.3-.1h0zm4.7-2.7c-.3 0-.5-.2-.5-.5 0-.2.1-.3.2-.4l2.3-1.3c.2-.1.5 0 .7.2.1.2.1.5-.2.7l-2.3 1.3h-.2 0zm16-2.4c-.3 0-.5-.2-.5-.5h0v-2.7c0-.3.2-.5.5-.5s.5.2.5.5v2.7c.1.3-.1.5-.5.5h0 0zm-11.4-.3c-.3 0-.5-.2-.5-.5 0-.2.1-.3.2-.4l2.3-1.3c.2-.1.5-.1.7.2.1.2.1.5-.2.7l-2.3 1.4c0-.1-.1-.1-.2-.1zm4.6-2.7c-.2 0-.3-.1-.4-.2-.1-.2 0-.5.2-.7l2.3-1.3c.2-.1.5 0 .6.3.1.2 0 .4-.2.6l-2.3 1.3h-.2 0zm6.8-2.4c-.2 0-.4-.2-.5-.4 0-.2-.1-.5-.4-.5-.1 0-.2 0-.4.1l-.6.4c-.2.1-.5.1-.7-.2-.1-.2 0-.5.2-.7l.6-.4c.6-.4 1.5-.3 1.9.4.1.2.2.4.2.6.2.4 0 .7-.3.7h0 0z" class="P"/><use href="#J" class="L S"/><use href="#K" class="M"/><use href="#K" class="K L O"/><use href="#L" class="M"/><use href="#L" class="K L R"/><use href="#M" class="M"/><use href="#M" class="K L N"/><path d="M287.8 160.2v-11.9c0-1 .8-2.1 1.4-2l8.9.8c.7.1.7 1.4 0 2.3l-8.9 11.1c-.7.9-1.4.7-1.4-.3z" class="Q"/><use href="#L" x="-41.9" y="12.2" class="L S"/><use href="#N" class="M"/><use href="#N" class="K L O"/><use href="#J" x="-21.3" y="24.2" class="M"/><use href="#J" x="-21.3" y="24.2" class="K L R"/><use href="#O" class="M"/><g class="K"><use href="#O" class="L N"/><path d="M257.9 170.2c.9.6 2.2.6 3-.1 2.4-1.4 4.3-5.1 4.3-8.3.1-1.3-.3-2.5-1.3-3.3-.9-.6-2.1-.6-3 .1-2.4 1.4-4.3 5.1-4.3 8.3-.1 1.3.4 2.5 1.3 3.3zm10.8 3.2c0-1.3-.6-2.6-1.6-3.5-.9-.6-2.1-.6-3.1 0l-6 3.5c-2.3 1.4-4.3 5.1-4.6 8.9l-.3 3 15.8-9.2-.2-2.7z"/></g><path d="M230.1 162.1c0-1.4-1-2-2.2-1.3l-18.4 10.6c-1.3.8-2.1 2.3-2.2 3.8V203c0 1.4 1 2 2.2 1.3l18.4-10.6c1.3-.8 2.1-2.3 2.2-3.8v-27.8z" class="L S"/><use href="#P" class="M"/><use href="#P" class="K L O"/><use href="#Q" class="M"/><use href="#Q" class="K L R"/><use href="#R" class="M"/><g class="K"><use href="#R" class="L N"/><path d="M237.3 181.9c0-.1-.1-.2-.2-.1l-1.5.6c-.3.1-.6 0-.7-.3v-.1h0c-.1-.5-.1-1 .1-1.4l1-2.2c.1-.1.1-.2 0-.3-.5-.7-1.2-1.2-2-1.5-.1 0-.2 0-.2.1l-1.2 2c-.2.4-.6.7-1 .7h0c-.3 0-.6-.3-.6-.7l-.2-1.9c0-.1-.1-.2-.2-.1-1 .4-2 .9-2.9 1.6-.1.1-.1.2-.2.3l-.2 2.1c-.1.5-.3 1-.6 1.4h0c-.3.4-.7.5-1 .4l-1.2-.6c-.1 0-.2 0-.2.1-.8 1.2-1.5 2.5-2 3.9-.1.1-.1.2 0 .3l1 1.1c.2.4.3.8.1 1.2h0c-.1.5-.4.9-.8 1.2l-1.6 1.1c-.1.1-.2.2-.2.3-.1.7-.1 1.3-.1 2 0 .6 0 1.2.1 1.8 0 .1.1.2.2.1l1.5-.6c.3-.1.6 0 .7.3v.1h0c.1.5.1 1-.1 1.4l-1 2.2c-.1.1-.1.2 0 .3.5.7 1.2 1.2 2 1.5.1 0 .2 0 .2-.1l1.2-2c.2-.4.6-.7 1-.7h0c.3 0 .6.3.6.7l.2 1.9c0 .1.1.2.2.1l1.4-.6c.5-.3 1-.6 1.4-1 .1-.1.2-.2.2-.3l.2-2.1c.1-.5.3-1 .6-1.4h0c.4-.4.7-.5 1-.4l1.2.6c.1 0 .2 0 .2-.1.8-1.2 1.5-2.5 2-3.9.1-.1.1-.2 0-.3l-1-1.1c-.2-.4-.3-.8-.1-1.2h0 0c.1-.5.4-.9.8-1.3l1.5-1.1c.1-.1.2-.2.2-.3.1-.7.1-1.3.1-2 .2-.5.2-1.1.1-1.7zm-8.3 12.3c-2.3 1.4-4.2-.1-4.2-3.2s1.9-6.8 4.2-8.1 4.2.1 4.2 3.2-1.9 6.8-4.2 8.1z"/></g><use href="#S" class="M"/><g class="K L"><use href="#S" class="N"/><path d="M188.5 71.7h0c-2.1-1.2-4.9-1-7.8.7-1.5.9-2.8 2-4 3.2l-7.1-4.1-.7-.4.2-.2c1.1-1.2 2.4-2.2 3.8-3 3-1.8 5.8-1.9 7.9-.6h0l7.7 4.4z" opacity=".35"/><path d="M169 70.9c.2.2.4.4.5.6l-.7-.4.2-.2z" opacity=".8"/><path d="M167.2 69.4h0c-2.7-1.5-6.1-1.3-9.9.9s-7.3 6.1-10 10.8l-7.8-4.5c2.7-4.7 6.2-8.6 10-10.8 4-2.3 7.7-2.4 10.4-.6h0l7.3 4.2zm-25 33.9l-1.1.6c-3.6 2.1-6.8 6.6-8.5 11.5l-7.8-4.5c1.2-3.8 3.4-7.3 6.3-10l3.2-2.2 7.9 4.6z" opacity=".35"/></g><use href="#T" class="M"/><g class="K L"><use href="#T" class="O"/><path d="M137.4 129.1c-2.4 0-3.9-2.6-3.9-6.7 0-6.4 4-14.1 8.7-16.9l1.1-.6c.7-.4 1.1-1.2 1-2h0c-.2-1.1-.3-2.3-.3-3.4 0-10.6 6.4-23 14.3-27.5 1.5-1 3.3-1.5 5.1-1.6 4.3 0 7 4.1 7.2 10.7h0c.1 1.1 1 2 2.1 1.9.7 0 1.3-.4 1.6-1h0c1.7-3.3 4.2-6 7.3-8 1.1-.7 2.5-1.1 3.8-1.2 3.2 0 5.3 3.4 5.3 8.6 0 1-.1 2-.2 3h0c-.2 1.1.6 2.1 1.7 2.3.4.1.9 0 1.3-.3l.6-.3c.4-.3.8-.4 1.3-.4 1 0 1.5 1.6 1.5 3.1 0 3.6-2.2 7.9-4.8 9.4l-51.9 29.9c-.8.7-1.8 1-2.8 1h0z" class="O"/></g><path d="M355.7 141.2c-.4 0-.7.1-1 .3l-50.6 29.2c-1.3.9-2.2 2.3-2.3 3.9v80.1c0 .4.1.8.2 1.1s.3.6.6.8l.2.1.2.1h.3 0c.3 0 .5-.1.7-.2l50.6-29.3c1.3-.9 2.2-2.3 2.3-3.9v-80.6-.3-.2h0c0-.2-.1-.3-.2-.5 0 0 0-.1-.1-.1 0 0 0-.1-.1-.1 0-.1-.1-.1-.1-.1h0c-.1 0-.1-.1-.2-.1-.1-.1-.3-.1-.5-.2h0z" class="L S"/><path d="M367.1 145.9c-.4 0-.7.1-1 .3l-50.6 29.2c-1.3.9-2.2 2.3-2.3 3.9v80.1c0 .4.1.8.2 1.1s.3.6.6.8l.2.1.2.1h.3 0c.3 0 .5-.1.7-.2L366 232c1.3-.9 2.2-2.3 2.3-3.9v-80.6-.3-.2h0c0-.1 0-.1-.1-.2 0-.1-.1-.2-.1-.3 0 0 0-.1-.1-.1 0 0 0-.1-.1-.1 0-.1-.1-.1-.1-.1h0c-.1 0-.1-.1-.2-.1-.1-.2-.3-.2-.5-.2h0z" fill="#455a64"/><path d="M367.6 146c-.5-.2-1.1-.1-1.5.2l-50.6 29.2c-.7.4-1.2 1-1.6 1.7h0l-5.8-3.3c.4-.7.9-1.2 1.6-1.6l50.6-29.2c.5-.4 1.1-.4 1.6-.1.4.1 5.2 2.8 5.7 3.1z" fill="#37474f"/><path d="M355.5 155.4c-.8.7-1.3 1.7-1.3 2.7 0 1.1.6 1.6 1.3 1.2.8-.7 1.3-1.6 1.3-2.7s-.6-1.6-1.3-1.2zm4.6-2.7c-.8.7-1.3 1.7-1.3 2.7 0 1.1.6 1.6 1.3 1.2.8-.7 1.3-1.7 1.3-2.7s-.6-1.6-1.3-1.2zm4.6-2.6c-.8.7-1.3 1.7-1.3 2.7 0 1.1.6 1.6 1.3 1.2.8-.6 1.3-1.6 1.3-2.7s-.6-1.6-1.3-1.2z" class="Q"/><path d="M313.4 260.5c-.2-.4-.2-.7-.2-1.1v-72.7h0v-7.4c0-.8.3-1.6.7-2.2l-5.8-3.3c-.4.7-.7 1.5-.7 2.3v7.3h0V256c0 .4.1.8.3 1.2.2.3.4.6.7.8l5.4 3.1.3.2c-.4-.3-.6-.5-.7-.8z" fill="#263238"/><path d="M359.7 221l-37.9 21.9c-1.7 1-3-.1-3-2.3v-48.5c0-2.3 1.1-4.4 3-5.7l37.9-21.9c1.7-1 3 .1 3 2.3v48.5c-.1 2.3-1.2 4.4-3 5.7z" class="M"/><path d="M323.5 231.2l34.5-19.9-8.6-12.6-4.4 11.4-9.6-20.9zm30.1-47.7c0 2.7-1.6 5.8-3.6 6.9s-3.6-.1-3.6-2.8 1.6-5.8 3.6-6.9 3.6.1 3.6 2.8z" class="Q"/><use href="#U" class="M"/><use href="#U" class="L N"/><path d="M272.4 28.8c-.1-1.2-.7-2.3-1.7-3l-1.4-.8c-1.1-.5-2.4-.5-3.5 0l-52.4 30.2c-1 .7-1.7 1.8-1.7 3v23.5c.1 1.2.7 2.3 1.7 3l1.4.8c1.1.5 2.4.5 3.5 0l8.3-4.8 2.5 4.3c.1.2.3.2.5.1.1 0 .1-.1.2-.2l2.6-7.6 38.3-22.1c1-.7 1.7-1.8 1.7-3V28.8z" class="M"/><path d="M211.6 81.7c.1 1.2.7 2.3 1.7 3l1.4.8c1 .5 2.2.5 3.2.1-.8.3-1.4-.2-1.4-1.2V61c0-.6.2-1.2.5-1.7l-4.9-2.8c-.3.5-.5 1.1-.5 1.7v23.5z" class="L N"/><g class="K"><path d="M272.3 28.3c-.2-.7-.9-1-1.7-.5L218.2 58c-.5.3-.9.8-1.2 1.3l-4.9-2.8c.3-.5.7-1 1.2-1.3L265.7 25c1.1-.5 2.4-.5 3.5 0l1.4.8c.9.5 1.5 1.4 1.7 2.5z" opacity=".3" class="L"/><path d="M230.2 57.5c.1-.1.2-.1.3 0s.1.2.1.3v8.9c0 .9-.1 1.8-.3 2.6s-.5 1.6-.9 2.4c-.8 1.5-2 2.8-3.5 3.7-.6.4-1.3.7-2.1.8-.5.1-1-.1-1.5-.4-.4-.4-.7-.8-.9-1.4-.2-.7-.3-1.5-.3-2.3v-8.9c0-.2 0-.3.1-.5.1-.1.2-.3.3-.3l1.3-.8c.1-.1.2-.1.3 0s.1.2.1.3v8.8c0 .5 0 1 .2 1.4.1.3.3.6.5.7s.5.2.8.1c.4-.1.7-.2 1-.4.4-.2.7-.5 1-.8s.6-.6.8-1 .4-.9.5-1.3c.1-.5.2-1.1.2-1.6v-8.9c0-.2 0-.3.1-.5.1-.1.2-.3.3-.3l1.6-.6zm3.3 13.3c-.1.1-.2.1-.3 0s-.2-.2-.1-.3V56.4c0-.2.1-.3.1-.5.1-.1.2-.3.3-.4l1.3-.8c.1-.1.2-.1.3 0s.1.2.1.3v14.1c0 .2 0 .3-.1.5-.1.1-.2.3-.3.3l-1.3.9zm9-21.6c.1-.2.1-.4.2-.6s.3-.4.5-.5l1.2-.7c.1-.1.2-.1.3 0s.1.2.1.3v.2l-5.5 20.8c-.1.2-.1.4-.2.6s-.3.4-.5.5l-1.2.7c-.1.1-.2.1-.2 0-.1-.1-.1-.2-.1-.3V70l5.4-20.8zm12.8-6.2c.1-.1.2-.1.3 0s.1.2.1.3v8.9c0 .9-.1 1.8-.3 2.6s-.5 1.6-.9 2.4-.9 1.4-1.5 2.1c-.6.6-1.3 1.2-2 1.6-.6.4-1.3.6-2.1.8-.5.1-1-.1-1.5-.4-.4-.3-.7-.8-.9-1.4-.2-.7-.3-1.5-.3-2.3v-8.9c0-.2 0-.3.1-.5.1-.1.2-.3.3-.3l1.3-.8c.1-.1.2-.1.3 0s.1.2.1.3v8.8c0 .5 0 1 .2 1.4.1.3.3.6.5.7s.5.2.8.1c.4-.1.7-.2 1-.4.4-.2.7-.5 1-.8s.6-.6.8-1 .4-.9.5-1.3c.1-.5.2-1.1.2-1.6v-8.9c0-.2 0-.3.1-.5.1-.1.2-.3.3-.3l1.6-.6zm10.3 9.3c-.2.1-.4.1-.5 0l-.2-.2-2.6-3.3-2.6 6.3c-.1.1-.1.2-.2.5-.1.2-.3.4-.5.5l-1.4.8c-.1.1-.2.1-.3 0s-.1-.2-.1-.3v-.3l3.8-9.1-3.6-4.6c0-.1-.1-.1 0-.2 0-.2 0-.3.1-.5.1-.1.2-.3.3-.3l1.4-.8c.2-.1.4-.2.5-.1l.2.2 2.5 3.2 2.5-6c0-.1.1-.2.2-.5.1-.2.3-.4.5-.5l1.4-.8c.1-.1.2-.1.3 0s.1.2.1.3v.3l-3.6 8.8 3.7 4.7c0 .1.1.1 0 .2 0 .2 0 .3-.1.5-.1.1-.2.3-.3.3l-1.5.9z"/></g><use href="#V" class="M"/><use href="#V" class="K L N"/><use href="#W" class="M"/><use href="#W" class="K L N"/><use href="#X" class="M"/><g class="K L"><use href="#X" class="R"/><path d="M403.7 83.9c.1-.5.5-.7 1-.4l30.1 17.4c.3.2.5.5.7.8l5-2.9c-.2-.3-.4-.5-.7-.7l-30.1-17.4c-.6-.3-1.4-.3-2 0l-3 1.7c-.5.3-.9.9-1 1.5z" class="O"/></g><path d="M411.3 101.7c.1 4.4 1.6 8.6 4.2 12.2.7.9 1.1 2 1.1 3.2 0 .3.1.5.4.7l1.3.8 3 1.8 1.3.8h.1.1c.1-.1.1-.2.1-.3 0-1 .4-1.8 1.1-1.9 2.6-.6 4.2-3.4 4.2-7.5-.1-5.9-3.7-13-8.1-15.8-1.1-.8-2.4-1.2-3.8-1.3-.9 0-1.8.3-2.5.8-1.6 1-2.5 3.3-2.5 6.5zm6.8 8.4c-.1-.7-.3-1.3-.5-1.8l-.1-.3h.2c.5 0 1 0 1.4-.2.2-.1.5-.2.7-.4l.1-.1.1.2c.2.4.4.8.7 1.2.4.6.9 1.3 1.4 1.8l.2.2-.1.2c-.2.4-.4.8-.5 1.3-.5 2.3-.7 4.7-.6 7.1l-2.4-1.4c.1-2.6-.1-5.2-.6-7.8h0zm1.8-3.8l-.1-.4c-.4-.8-.5-1.7-.4-2.5.1-.3.3-.3.5-.2.3.2.5.5.5.8.1.7 0 1.5-.4 2.1l-.1.2zm-7.9-4.6c0-2.9.8-5 2.3-6.1.6-.4 1.3-.6 2.1-.6 1.2.1 2.4.5 3.4 1.2 4.2 2.7 7.7 9.5 7.8 15.2 0 3.7-1.4 6.3-3.6 6.8-.9.2-1.5 1-1.6 1.9l-.7-.4h0c-.1-2.3 0-4.7.5-7 .1-.5.3-.9.5-1.4l.1-.1.1.1c.3.2.5.4.8.5.4.3.8.4 1.3.3.3-.1.5-.5.3-1-.1-.6-.4-1.1-.9-1.4-.6-.3-1.4-.1-1.7.5l-.1.1-.1-.1c-.5-.6-1-1.2-1.4-1.8-.2-.4-.5-.8-.7-1.2l-.1-.2.1-.1c.6-.8.8-1.8.6-2.8-.1-.7-.5-1.2-1-1.6-.5-.3-.9 0-1 .5-.1 1.2.1 2.5.6 3.6l.1.2-.1.1c-.2.2-.4.3-.7.4-.4.2-.9.3-1.4.2h-.1l-.1-.2c-.3-1-.9-1.8-1.7-2.5-.5-.3-.8-.1-.9.3-.1.5 0 1 .3 1.4.3.5.8.9 1.3 1.2.2.1.5.3.8.3h.1l.1.2c.2.7.4 1.3.5 2 .5 2.5.6 5 .5 7.6l-.9-.5v-.1c-.1-1.3-.6-2.6-1.4-3.6-2.5-3.6-3.9-7.7-4-11.9zm4.4 5.3l-.2-.1c-.4-.2-.7-.5-1-.9-.1-.1-.2-.3-.2-.5.1-.2.2-.3.5-.2.5.4.8.9 1 1.4l.2.5-.3-.2zm6.9 3.6c.3-.3.7-.3 1-.2.2.2.4.4.5.7s-.1.3-.2.3c-.4 0-.7-.1-1-.3l-.2-.1-.4-.2.3-.2zm-6.7 8.5c0 .3.2.6.4.8l5.5 3.2c.2.1.4 0 .4-.3s-.2-.6-.4-.8l-5.5-3.2c-.2-.1-.4 0-.4.3h0zm0 2c0 2.4 1.2 4.6 3.2 6 .4.2.8.4 1.2.4 1.1 0 1.9-1 1.9-2.8 0-.3-.2-.6-.4-.8l-5.5-3.1h-.2c-.1 0-.2.1-.2.3h0zm.8.7l4.8 2.8c0 .1.1.1.1.2 0 .9-.3 2-1.2 2-.3 0-.6-.1-.9-.3-1.6-1.1-2.6-2.8-2.8-4.7h0z" class="Q"/><use href="#Y" class="M"/><use href="#Y" class="K L N"/><use href="#Z" class="M"/><use href="#Z" class="K L N"/><use href="#a" class="M"/><g class="K"><use href="#a" class="L R"/><path d="M267.8 209.3c-.1-.5-.5-.7-1-.4l-38 22c-.3.2-.6.4-.7.8l-5-2.9c.2-.3.4-.5.7-.7l38-22c.6-.3 1.4-.3 2 0l3 1.7c.6.3 1 .8 1 1.5z" class="L O"/><path d="M231.9 247.2c0-.3 0-.6.1-.8.1-.3.3-.5.4-.8l7.7-12.4.1-.1s.1 0 .1-.1c.1-.1.2-.1.3 0s.1.2.1.4v4.8c0 .3-.1.7-.2 1-.1.2-.2.4-.4.6l-3.4 5.2 3.4 1.3c.1 0 .3.1.4.2s.2.3.2.7v4.8c0 .2 0 .4-.1.5s-.2.3-.3.4h-.1-.1l-7.7-3.6c-.2-.1-.3-.2-.4-.3-.1-.2-.2-.4-.1-.6v-1.2zm16.8-21.1l.3-.8c.1-.3.3-.5.6-.6l2.6-1.5c.1-.1.2-.1.3 0s.1.2.1.4v.3l-6.5 27.8-.3.8c-.1.3-.3.5-.6.6l-2.5 1.4c-.1.1-.2.1-.3 0s-.1-.2-.1-.4v-.3l6.4-27.7zm14.1 4.5c0 .3 0 .6-.1.8-.1.3-.3.5-.4.8l-7.7 12.4-.1.1-.1.1c-.1.1-.2.1-.3 0s-.1-.2-.1-.4v-4.8c0-.3.1-.7.2-1s.3-.5.4-.6l3.4-5.2-3.4-1.3c-.1 0-.3-.1-.4-.2s-.2-.4-.2-.8v-4.8c0-.2 0-.3.1-.5.1-.1.2-.3.3-.3h.1.1l7.7 3.6c.2.1.3.2.4.3.1.2.2.4.1.6v1.2z"/></g><use href="#b" class="M"/><use href="#b" class="K L N"/><use href="#c" class="M"/><use href="#c" class="K L N"/><use href="#d" class="M"/><g class="K L"><use href="#d" class="R"/><path d="M92.8 98.5c-.1-.5-.5-.7-1-.4l-30.1 17.4c-.3.2-.5.5-.7.8l-5-2.9c.2-.3.4-.5.7-.7l30.1-17.4c.6-.3 1.4-.3 2 0l3 1.7c.6.3.9.8 1 1.5z" class="O"/></g><path d="M85 110c-1.2-.5-2.6 0-3.1 1.2L73 132.5l-2.1-2.1c-1-.9-2.5-.7-3.3.3-.8.9-.8 2.3 0 3.1l4.6 4.5c.4.4 1 .7 1.6.7.2 0 .3 0 .5-.1.8-.2 1.4-.7 1.7-1.4l10.3-24.4c.5-1.2-.1-2.6-1.3-3.1z" class="Q"/><defs><path id="A" d="M338.1 363.4c-.6-.2-1.1-.9-1-1.5l.3-2.6c.1-.6-.4-1.2-1-1.3l-6.8-.7c-.7 0-1.4.3-1.8 1l-1.4 2.6c-.4.6-1 1.1-1.8 1.1l-3.5.4c-.8.1-1.5-.1-2.2-.4l-3.7-2.4c-.6-.4-1.4-.5-2.1-.2l-5.5 2.2c-.3.1-.5.4-.6.7h0v.1h0v5.6h0c0 .2.1.5.3.6l.3.3c-.4.3-1 .4-1.5.5l-6.2-.2c-.7 0-1.3.4-1.6 1.1l-.9 3v.4h0v5.6h0c0 .5.4.9.9 1l4.8.8-1.9.9c-.3.1-.5.4-.5.7h0v5.6h0c0 .2.1.5.3.6l3.5 2.9c.6.4 1.4.6 2.1.4l5.3-1.7c.7-.2 1.5-.1 2.2.1.9.4 1.9.7 2.8 1 .3.1.5.3.7.5v3.8h0c0 .6.5 1.1 1.1 1.2l6.8.7c.7 0 1.4-.4 1.8-1l1.4-2.6c.4-.6 1-1.1 1.8-1.1l3.5-.4c.8-.1 1.5.1 2.2.4l3.7 2.4c.6.4 1.4.5 2.1.2l5.4-2.2c.3-.1.6-.4.6-.7h0v-5.6h0c0-.2-.1-.4-.3-.6l-.3-.3c.4-.3 1-.4 1.5-.5l6.2.2c.7 0 1.3-.4 1.6-1.1l.9-3c0-.1.1-.2 0-.3h0V376h0c0-.5-.4-.9-.9-1l-4.8-.8 1.9-.9c.3-.1.5-.4.5-.7h0V367h0c0-.3-.1-.5-.3-.6l-3.5-2.9c-.6-.4-1.4-.6-2.1-.4l-5.3 1.7c-.7.2-1.5.1-2.2-.1-.8-.7-1.8-1.1-2.8-1.3zm-22.6 14.1c1.2-1.5 2.8-2.7 4.6-3.4 5.9-2.4 14-1.5 18.1 1.9.5.4 1 .9 1.4 1.5-1.2 1.6-2.8 2.7-4.7 3.4-5.9 2.4-14 1.5-18.1-1.9-.4-.5-.9-1-1.3-1.5z"/><path id="B" d="M329.3 387.9c-.2.2-.4.4-.6.7l-1.4 2.6c-.2.4-.6.7-1 .8v5.6c.4-.2.8-.4 1-.8l1.4-2.6c.1-.3.3-.5.6-.6v-5.7zm18.7-.8h0c0 .3-.2.6-.6.7L342 390c-.5.2-1 .2-1.4 0v5.6c.5.1 1 .1 1.4-.1l5.5-2.2c.3-.1.5-.4.6-.7l-.1-5.5zm-36.1-2.3l-5.2 1.6c-.4.1-.9.1-1.3 0v5.6c.4.1.9.1 1.3 0l5.2-1.6v-5.6zm45.8-8.9c0 .1 0 .2-.1.3l-.9 3c-.2.7-.9 1.1-1.6 1.1l-6.2-.2c-.3 0-.7.1-1 .2v5.6c.3-.1.7-.2 1-.2l6.2.2c.7 0 1.3-.4 1.6-1.1l.9-3c0-.1.1-.2 0-.4l.1-5.5zm-3.3-9.1v.2c0 .1-.1.2-.2.3s-.2.1-.3.2l-4.4 2.2c-.1 0-.2.1-.3.2s-.2.3-.3.5c-.1.1-.1.3-.1.4v.2c0 .1.1.2.1.3.2.4.3.8.4 1.2.2.7.7 1.2 1.5 1.4l1.1.2 1.9-.9c.3-.1.5-.4.5-.7h0l.1-5.7z"/><path id="C" d="M348.5 362.9l-5.3 1.7c-.7.2-1.5.1-2.2-.1-.9-.4-1.9-.7-2.8-1-.6-.2-1.1-.9-1-1.5l.3-2.6c.1-.6-.4-1.2-1-1.3l-6.8-.7c-.7 0-1.4.3-1.8 1l-1.4 2.6c-.4.6-1 1.1-1.8 1.1l-3.5.4c-.8.1-1.5-.1-2.2-.4l-3.7-2.4c-.6-.4-1.4-.5-2.1-.2l-5.5 2.2c-.4.1-.7.5-.5.9 0 .2.1.3.3.4l2.5 2.6c.4.4.4 1 .1 1.4l-.2.2-1.5 1.3c-.5.5-1.3.8-2 .9l-6.4-.4c-.7 0-1.3.4-1.6 1.1l-.9 3c-.2.5.1 1.1.6 1.3.1 0 .2.1.3.1l5.9 1c.7.2 1.2.7 1.4 1.4.1.4.3.8.5 1.2.3.6.1 1.3-.5 1.6l-4.4 2.2c-.4.1-.6.5-.5.9.1.2.2.3.3.4l3.5 2.9c.6.4 1.4.6 2.1.4l5.3-1.7c.7-.2 1.5-.1 2.2.1l2.8 1.1c.6.2 1.1.9 1 1.5l-.3 2.6c-.1.6.4 1.2 1 1.3l6.8.7c.7 0 1.4-.3 1.8-1l1.4-2.6c.4-.6 1-1.1 1.8-1.1l3.5-.4c.8-.1 1.5.1 2.2.4l3.7 2.4c.7.4 1.5.4 2.2.1l5.5-2.2c.4-.1.6-.5.5-.9 0-.1-.1-.3-.2-.4l-2.5-2.6c-.4-.4-.4-1-.1-1.4l.2-.2 1.5-1.3c.5-.5 1.3-.8 2-.9l6.2.2c.7 0 1.3-.4 1.6-1.1l.9-3c.2-.5-.1-1.1-.6-1.3-.1 0-.2-.1-.3-.1l-5.9-1c-.7-.2-1.2-.7-1.4-1.4-.1-.4-.3-.8-.5-1.2-.3-.6-.1-1.3.5-1.6l4.4-2.2c.4-.1.6-.5.5-.9-.1-.2-.2-.3-.3-.4l-3.5-2.9c-.6-.3-1.4-.4-2.1-.2zm-10.2 7.5c4.1 3.4 2.6 8.1-3.3 10.5s-14 1.5-18.1-1.9-2.6-8.1 3.3-10.5 14-1.5 18.1 1.9h0z"/><path id="D" d="M371.8 305.6l-7-4c-.5-.2-1-.3-1.5-.1l-7.1 3.3c-.5.2-1.1.2-1.6.1-1.8-.6-3.7-1-5.5-1.3a1.285 1.285 0 0 1-1-1l-.9-4.7c-.1-.5-.5-.8-1-.9h-10.4c-.5 0-.9.4-1 .9l-.9 4.7a1.285 1.285 0 0 1-1 1c-1.9.3-3.7.8-5.5 1.3-.5.1-1.1.1-1.6-.1l-7.1-3.3c-.5-.2-1.1-.2-1.5.1l-7 4c-.2.1-.3.3-.3.5h0v6.1h0c0 .2.1.4.3.5l3.2 2.3c-.2.2-.5.3-.8.3l-9.3.6c-.5.1-.8.5-.9.9v4h0v7.3a.896.896 0 0 0 .9.9l9.3.6c.3 0 .6.2.8.4l-3.2 2.3c-.2.1-.3.3-.3.5h0v6.1h0c0 .2.1.4.3.5l7 4c.5.2 1 .3 1.5.1l7.1-3.3c.5-.2 1.1-.2 1.6-.1 1.8.6 3.7 1 5.5 1.3a1.285 1.285 0 0 1 1 1l.9 4.7c.1.5.5.8 1 .9H346c.5 0 .9-.4 1-.9l.9-4.7a1.285 1.285 0 0 1 1-1c1.9-.3 3.7-.8 5.5-1.3.5-.1 1.1-.1 1.6.1l7.1 3.3c.5.2 1.1.2 1.5-.1l7-4c.2-.1.3-.3.3-.5h0v-6.1h0c0-.2-.1-.4-.3-.5l-3.2-2.3c.2-.2.5-.3.8-.3l9.3-.6c.5-.1.8-.5.9-.9v-11.3a.896.896 0 0 0-.9-.9l-9.3-.6c-.3 0-.6-.2-.8-.3l3.2-2.3c.2-.1.3-.3.3-.5h0v-6.1h0c.1-.3 0-.5-.1-.6zm-47.3 15.8c.5-1.7 2-3.3 4.6-4.8 6.5-3.8 17.1-3.8 23.7 0 2 1 3.6 2.5 4.7 4.5-.6 1.9-2.1 3.8-4.7 5.2-6.5 3.8-17.1 3.8-23.7 0-2.1-1.1-3.8-2.8-4.6-4.9z"/><path id="E" d="M379.6 322.2c-.1.4-.4.8-.9.8l-9.3.6c-.2 0-.3 0-.5.1v6.1c.1-.1.3-.1.5-.1l9.3-.6c.5-.1.8-.5.9-.9v-6zm-7.5-16.1h0v.2c0 .1-.1.1-.1.2l-.1.1-5.5 4c-.1 0-.1.1-.1.1-.1.1-.1.2-.2.3v.2.1c0 .1.1.2.2.3l.1.1c.7.8 1.4 1.7 1.9 2.6.1.2.3.4.4.5l3.2-2.3c.2-.1.3-.3.3-.5h0l-.1-5.9zm0 26.7c0 .2-.2.3-.3.4l-7 4c-.3.2-.7.2-1.1.2v6.1c.4.1.8 0 1.1-.2l7-4c.2-.1.3-.3.3-.5v-6zm-45.8 1.1c-.2 0-.5.1-.7.2l-7.1 3.3c-.2.1-.4.1-.6.1v6.1c.2 0 .4 0 .6-.1l7.1-3.3c.2-.1.5-.1.7-.2v-6.1zm20.6 7.5c-.2.3-.5.5-.9.5h-10.3c-.2 0-.4-.1-.6-.2v6.1c.2.1.4.2.6.2H346c.4 0 .7-.2.9-.5v-6.1z"/><path id="F" d="M363.2 301.5l-7.1 3.3c-.5.2-1.1.2-1.6.1-1.8-.6-3.7-1-5.5-1.3a1.285 1.285 0 0 1-1-1l-.9-4.7c-.1-.5-.5-.8-1-.9h-10.4c-.5 0-.9.4-1 .9l-.9 4.7a1.285 1.285 0 0 1-1 1c-1.9.3-3.7.8-5.5 1.3-.5.1-1.1.1-1.6-.1l-7.1-3.3c-.5-.2-1.1-.2-1.5.1l-7 4c-.3.1-.5.3-.4.6 0 .2.2.3.3.4l5.5 4c.3.2.4.7.2 1l-.1.1c-.8.8-1.4 1.8-2 2.8-.3.5-.7.8-1.3.8l-9.3.6c-.5.1-.8.5-.9.9v5.2a.896.896 0 0 0 .9.9l9.3.6c.5.1 1 .4 1.3.8.6 1 1.2 1.9 2 2.8.3.3.3.8 0 1.1l-.1.1-5.5 4c-.3.1-.4.4-.2.7l.3.3 7 4c.5.3 1 .3 1.5.1l7.1-3.3c.5-.2 1.1-.2 1.6-.1 1.8.6 3.6 1 5.5 1.3a1.285 1.285 0 0 1 1 1l.9 4.7c.1.5.5.8 1 .9H346c.5 0 .9-.4 1-.9l.9-4.7a1.285 1.285 0 0 1 1-1c1.9-.3 3.7-.8 5.5-1.3.5-.1 1.1-.1 1.6.1l7.1 3.3c.5.2 1.1.2 1.5-.1l7-4c.3-.1.4-.4.3-.7 0-.1-.1-.2-.3-.3l-5.5-4c-.3-.2-.4-.7-.2-1l.1-.1c.8-.8 1.4-1.8 2-2.8.3-.5.7-.8 1.3-.8l9.3-.6c.5-.1.8-.4.9-.9v-5.2a.896.896 0 0 0-.9-.9l-9.3-.6c-.5-.1-1-.4-1.3-.8-.6-1-1.2-1.9-2-2.8-.3-.3-.3-.8 0-1l.1-.1 5.5-4c.3-.1.4-.4.3-.7-.1-.2-.2-.3-.4-.3l-7-4c-.3-.3-.8-.4-1.3-.2zm-10.5 11.1c6.5 3.8 6.5 9.9 0 13.7s-17.1 3.8-23.7 0-6.5-9.9 0-13.7 17.1-3.8 23.7 0z"/><path id="G" d="M132 361.6l-7-4c-.9-.7-1.4-1.8-1.3-3V174.5l7.1 4.1v180.1c-.1 1.1.3 2.2 1.2 2.9z"/><path id="H" d="M356.8 32.3c-.8-.3-1.7-.2-2.3.2l-220 127c-2 1.2-3.7 4.4-3.7 7.1v11.9l-7.1-4.1v-12c0-1.5.4-3 1.2-4.3.6-1.1 1.4-2.1 2.5-2.8l220-127c.7-.5 1.6-.6 2.4-.2l7 4.2z"/><path id="I" d="M131.9 162.3c-.7 1.3-1.1 2.8-1.2 4.3v11.9l-7.1-4.1v-11.9c0-1.5.4-3 1.2-4.3h0l7.1 4.1z"/><path id="J" d="M293.4 125.6c0-1.4-1-2-2.2-1.3l-18.3 10.6c-1.3.8-2.1 2.3-2.2 3.8v27.8c0 1.4 1 2 2.2 1.3l18.3-10.6c1.3-.8 2.1-2.3 2.2-3.8v-27.8z"/><path id="K" d="M277 137.4l18.4-10.6c1.4-.7 3-.7 4.4 0l1.8 1c1.3.8 2.1 2.3 2.2 3.8v27.8c-.1 1.5-.9 3-2.2 3.8l-18.4 10.6c-1.4.7-3 .7-4.4 0l-1.8-1c-1.3-.8-2.1-2.3-2.2-3.8v-27.8c.1-1.6.9-3 2.2-3.8z"/><path id="L" d="M303.7 131.6c0-1.4-1-2-2.2-1.3l-18.4 10.6c-1.3.8-2.1 2.3-2.2 3.8v27.8c0 1.4 1 2 2.2 1.3l18.4-10.6c1.3-.8 2.1-2.3 2.2-3.8v-27.8z"/><path id="M" d="M274.8 169c.1 1.5.9 3 2.2 3.8l1.8 1c1.2.6 2.7.7 4 .2-1 .4-1.8-.2-1.8-1.4v-27.8c0-.8.2-1.5.6-2.2l-6.2-3.6c-.4.7-.6 1.4-.6 2.2V169z"/><path id="N" d="M245.4 155.6l18.3-10.6c1.4-.7 3-.7 4.4 0l1.8 1c1.3.8 2.1 2.3 2.2 3.8v27.8c-.1 1.5-.9 3-2.2 3.8L251.6 192c-1.4.7-3 .7-4.4 0l-1.8-1c-1.3-.8-2.1-2.3-2.2-3.8v-27.8c.1-1.6.9-3 2.2-3.8z"/><path id="O" d="M243.2 187.2c.1 1.5.9 3 2.2 3.8l1.8 1c1.2.6 2.7.7 4 .2-1 .4-1.8-.2-1.8-1.4V163c0-.8.2-1.5.6-2.2l-6.2-3.6c-.4.7-.6 1.4-.6 2.2v27.8z"/><path id="P" d="M213.6 173.9l18.4-10.6c1.4-.7 3-.7 4.4 0l1.8 1c1.3.8 2.1 2.3 2.2 3.8v27.8c-.1 1.5-.9 3-2.2 3.8l-18.3 10.6c-1.4.7-3 .7-4.4 0l-1.8-1c-1.3-.9-2.1-2.3-2.2-3.8v-27.8c0-1.6.9-3 2.1-3.8z"/><path id="Q" d="M240.4 168.1c0-1.4-1-2-2.2-1.3l-18.3 10.6c-1.3.8-2.1 2.3-2.2 3.8V209c0 1.4 1 2 2.2 1.3l18.3-10.6c1.3-.8 2.1-2.3 2.2-3.8v-27.8z"/><path id="R" d="M211.4 205.5c.1 1.5.9 3 2.2 3.8l1.8 1c1.2.6 2.7.7 4 .2-1 .4-1.8-.2-1.8-1.4v-27.8c0-.8.2-1.5.6-2.2l-6.2-3.6c-.4.7-.6 1.4-.6 2.2v27.8z"/><path id="S" d="M197 84.3h0l-.2-.1-.1-.1-4-2.3v-.3c0-4.9-1.7-8.4-4.3-9.8h0l-7.7-4.5h0c-2.1-1.2-4.9-1.1-7.9.6-1.4.8-2.7 1.8-3.8 3-.5-.5-1-1-1.7-1.3h0l-7.5-4.3h0c-2.7-1.8-6.4-1.8-10.4.6-8.4 4.9-15.3 18-15.3 29.2 0 1.2.1 2.5.3 3.7l-1.1.6c-5.4 3.1-9.7 11.4-9.7 18.6h0c0 4 1.3 6.8 3.4 8h0l7.8 4.5h0c1.7 1 3.9.9 6.3-.5l14.1-8.2L193 100c3.2-1.9 5.8-6.9 5.8-11.2h0c.1-2.1-.6-3.7-1.8-4.5z"/><path id="T" d="M193.1 84.5l-.6.3c.2-1.1.2-2.2.2-3.3 0-8.9-5.4-13-12.1-9.2-3.4 2.2-6.2 5.2-8.1 8.8-.3-10.7-7-15.6-15.3-10.8-8.4 4.9-15.3 18-15.3 29.2 0 1.2.1 2.5.3 3.7l-1.1.6c-5.4 3.1-9.7 11.4-9.7 18.6h0c0 7.2 4.4 10.6 9.7 7.5l14.1-8.2h0l37.7-21.8c3.2-1.9 5.8-6.9 5.8-11.2h0c.2-4.1-2.4-6.1-5.6-4.2z"/><path id="U" d="M229.2 85.2l-2.4-4.4 1.9-5.5v-3.4l-5.8 3.4v3.3l2.5 4.3c0 .1.1.1.2.2h0l3.6 2.1z"/><path id="V" d="M419.4 127.5l-.8-2.4c-.4-1.9 7.5 2.6 7.9 4.6l-2.6 6.9c-.1.2-.2.4-.4.5-.6.3-2.6 1.5-2.8 1.6-.5.3-1.2.2-1.5-.4 0-.1-.1-.2-.1-.3l-3.3-11.3c-.2-.9 1.7-.3 3.6.8z"/><path id="W" d="M409.8 80.7L439.9 98c.6.4 1 1 1 1.8v35.7c0 .7-.4 1.4-1 1.8l-3 1.7c-.6.3-1.4.3-2 0l-30.1-17.4c-.6-.4-1-1.1-1-1.8V84.1c0-.7.4-1.4 1-1.8l3-1.7c.5-.3 1.3-.3 2 .1z"/><path id="X" d="M404.7 83.5l30.1 17.4c.6.4 1 1 1 1.8v35.7c0 .6-.5.9-1 .6l-11.5-6.6-2.1 5.9c-.2.6-.9.8-1.4.6-.3-.1-.5-.4-.6-.7l-2.8-9.8-11.6-6.7c-.6-.4-1-1.1-1-1.8V84.1c-.1-.7.4-.9.9-.6z"/><path id="Y" d="M244.3 257.4l.8-2.4c.4-1.9-7.5 2.6-7.9 4.6l2.6 6.9c.1.2.2.4.4.5.6.4 2.6 1.5 2.8 1.6.5.3 1.2.2 1.5-.4 0-.1.1-.2.1-.2l3.3-11.3c.2-1-1.7-.4-3.6.7z"/><path id="Z" d="M261.8 206l-38 22c-.6.4-1 1-1 1.8v35.7c0 .7.4 1.4 1 1.8l3 1.7c.6.3 1.4.3 2 0l38-22c.6-.4 1-1 1-1.8v-35.7c0-.7-.4-1.4-1-1.8l-3-1.7c-.6-.3-1.4-.3-2 0z"/><path id="a" d="M266.8 208.9l-38 22c-.6.4-1 1-1 1.8v35.7c0 .6.4.9 1 .6l11.5-6.6 2.1 5.9c.2.6.9.8 1.4.6.3-.1.5-.4.6-.7l2.8-9.8 19.5-11.3c.6-.4 1-1 1-1.8v-35.7c.2-.8-.3-1.1-.9-.7z"/><path id="b" d="M77.1 142.1l.8-2.4c.4-1.9-7.5 2.6-7.9 4.6l2.6 6.9c.1.2.2.4.4.5.6.4 2.6 1.5 2.8 1.6.5.3 1.2.2 1.5-.4 0-.1.1-.2.1-.3l3.3-11.3c.2-1-1.6-.4-3.6.8z"/><path id="c" d="M86.8 95.2l-30.1 17.4c-.6.4-1 1.1-1 1.8v35.7c0 .7.4 1.4 1 1.8l3 1.7c.6.3 1.4.3 2 0l30.1-17.4c.6-.4 1-1 1-1.8V98.7c0-.7-.4-1.4-1-1.8l-3-1.7c-.6-.3-1.4-.3-2 0z"/><path id="d" d="M91.8 98.1l-30.1 17.4c-.6.4-1 1.1-1 1.8V153c0 .6.5.9 1 .6l11.5-6.6 2.1 5.9c.2.6.9.8 1.4.6.3-.1.5-.4.6-.7l2.8-9.8 11.6-6.7c.6-.4 1-1 1-1.8V98.7c.1-.7-.3-.9-.9-.6z"/></defs></svg>